<?xml version="1.0" encoding="UTF-8" standalone="no"?><!DOCTYPE svg PUBLIC "-//W3C//DTD SVG 1.1//EN" "http://www.w3.org/Graphics/SVG/1.1/DTD/svg11.dtd"><svg width="100%" height="100%" viewBox="0 0 236 21" version="1.1" xmlns="http://www.w3.org/2000/svg" xmlns:xlink="http://www.w3.org/1999/xlink" xml:space="preserve" xmlns:serif="http://www.serif.com/" style="fill-rule:evenodd;clip-rule:evenodd;stroke-linejoin:round;stroke-miterlimit:1.41421;"><g><rect x="0" y="1.765" width="17.501" height="17.499" style="fill:#203163;"/><path d="M10.618,13.829c-0.292,0.513 -0.816,0.769 -1.571,0.769c-0.4,0 -0.669,-0.053 -0.805,-0.155c-0.138,-0.103 -0.206,-0.366 -0.206,-0.789l0,-4.172c0.053,-0.006 0.102,-0.01 0.155,-0.013c0.051,-0.003 0.103,-0.004 0.153,-0.004c0.046,-0.006 0.095,-0.008 0.146,-0.008l0.154,0c0.84,0 1.453,0.231 1.837,0.693c0.386,0.462 0.578,1.104 0.578,1.92c0,0.662 -0.146,1.249 -0.441,1.759m-8.296,-1.228l0.925,-2.288l0.019,-0.051l0.015,-0.052l0.017,-0.055l0.018,-0.056c0.024,0.092 0.051,0.183 0.086,0.275c0.034,0.09 0.07,0.182 0.102,0.274l0.026,0.067l0.026,0.071l0.745,1.816l-1.979,0l0,-0.001Zm9.256,-2.194c-0.328,-0.491 -0.792,-0.842 -1.392,-1.054c-0.16,-0.051 -0.321,-0.09 -0.483,-0.115c-0.163,-0.024 -0.33,-0.042 -0.501,-0.048c-0.098,-0.005 -0.197,-0.008 -0.297,-0.008l-0.295,0l-0.284,0l-0.281,0c-0.096,0.006 -0.193,0.008 -0.287,0.008l-0.286,0l-0.284,0c-0.097,0 -0.195,-0.002 -0.292,-0.008l-0.285,0l-0.287,0l0,0.266l0.025,0c0.268,0.011 0.474,0.05 0.616,0.116c0.143,0.065 0.214,0.256 0.214,0.57l0,3.812c0,0.315 -0.07,0.504 -0.209,0.57c-0.108,0.05 -0.257,0.083 -0.447,0.104c-0.141,-0.021 -0.255,-0.066 -0.346,-0.135c-0.119,-0.09 -0.22,-0.231 -0.299,-0.419l-2.159,-4.978l-0.316,0l-2.057,4.978c-0.091,0.227 -0.207,0.378 -0.346,0.45c-0.14,0.071 -0.333,0.11 -0.579,0.114l0,0.268l1.971,0l0,-0.268l-0.181,0l-0.069,0l-0.068,-0.007c-0.097,-0.008 -0.186,-0.033 -0.27,-0.078c-0.082,-0.047 -0.124,-0.129 -0.124,-0.249c0,-0.039 0.006,-0.078 0.017,-0.117c0.012,-0.037 0.026,-0.074 0.043,-0.113l0.446,-1.108l2.278,0l0.463,1.108c0.023,0.044 0.042,0.094 0.056,0.143c0.014,0.053 0.021,0.103 0.021,0.154c0,0.086 -0.033,0.148 -0.099,0.185c-0.064,0.036 -0.134,0.061 -0.21,0.073c-0.034,0.006 -0.067,0.008 -0.098,0.008l-0.09,0l-0.188,0l0,0.267l4.908,0c0.846,0 1.531,-0.258 2.056,-0.771c0.525,-0.516 0.787,-1.194 0.787,-2.04c0,-0.627 -0.162,-1.185 -0.492,-1.678" style="fill:#fff;fill-rule:nonzero;"/><path d="M13.793,11.701c0.439,0 0.822,-0.051 1.152,-0.154c0.328,-0.103 0.492,-0.425 0.492,-0.968c0,-0.348 -0.067,-0.62 -0.201,-0.818c-0.133,-0.196 -0.387,-0.296 -0.758,-0.296l-0.686,0l0,2.236Zm0,0.275l0,1.97c0,0.274 0.077,0.449 0.231,0.527c0.154,0.077 0.355,0.116 0.6,0.116c0.411,0 0.696,-0.138 0.852,-0.409c0.158,-0.271 0.237,-0.587 0.237,-0.955c0,-0.627 -0.197,-0.993 -0.591,-1.095c-0.395,-0.104 -0.837,-0.154 -1.329,-0.154m1.055,-0.17c0.456,0.015 0.876,0.148 1.259,0.396c0.383,0.25 0.573,0.628 0.573,1.135c0,0.486 -0.166,0.867 -0.496,1.146c-0.332,0.276 -0.729,0.416 -1.19,0.416l-2.914,0l0,-0.268l0.027,0c0.273,-0.01 0.48,-0.05 0.62,-0.114c0.139,-0.068 0.211,-0.256 0.211,-0.57l0,-3.812c0,-0.315 -0.071,-0.505 -0.216,-0.57c-0.14,-0.066 -0.348,-0.105 -0.615,-0.116l-0.014,0l-0.013,0l0,-0.266l2.768,0c0.388,0 0.739,0.103 1.052,0.308c0.315,0.206 0.471,0.523 0.471,0.952c0,0.45 -0.154,0.776 -0.467,0.976c-0.311,0.2 -0.663,0.328 -1.056,0.387" style="fill:#fff;fill-rule:nonzero;"/><path d="M24.46,11.196c0.493,-0.216 1.07,0.009 1.286,0.502c0.216,0.494 -0.009,1.07 -0.502,1.286c-0.494,0.217 -1.07,-0.008 -1.286,-0.502c-0.217,-0.493 0.008,-1.069 0.502,-1.286Z" style="fill:#039f4a;"/><path d="M33.943,11.227c-0.493,-0.217 -1.07,0.008 -1.286,0.502c-0.216,0.493 0.009,1.07 0.502,1.286c0.494,0.216 1.07,-0.009 1.286,-0.502c0.217,-0.494 -0.008,-1.07 -0.502,-1.286Z" style="fill:#039f4a;"/><path d="M21.146,11.194c0,0 3.022,2.828 4.266,2.324l2.274,5.418l-0.904,-0.015c0,0 -0.045,-3.195 -5.748,-7.305l0.112,-0.422Z" style="fill:#039f4a;"/><path d="M37.181,11.194c0,0 -3.022,2.828 -4.266,2.324l-3.203,5.441l1.879,0.011c0,0 -0.001,-3.244 5.702,-7.355l-0.112,-0.421Z" style="fill:#039f4a;"/><path d="M26.547,8.964c0,0 0.031,3.992 -1.182,4.565l2.098,5.433l1.371,0.011c0,0 -2.744,-2.827 -1.901,-9.806l-0.386,-0.203Z" style="fill:#039f4a;"/><path d="M31.78,8.98c0,0 -0.031,3.976 1.182,4.549l-2.098,5.363l-1.451,0.008c0,0 2.688,-2.748 2.038,-9.365c-0.017,-0.169 -0.036,-0.08 -0.057,-0.254l0.386,-0.301Z" style="fill:#039f4a;"/><circle cx="29.222" cy="9.027" r="1.397" style="fill:#039f4a;"/><path d="M24.979,5.505c0,0 2.337,5.444 4.257,5.498l0.023,7.948l-1.322,0.002c0,0 1.767,-4.294 -3.347,-12.96l0.389,-0.488Z" style="fill:#039f4a;"/><path d="M33.41,5.514c0,0 -2.338,5.444 -4.258,5.498l-0.023,7.934l1.323,-0.026c0,0 -1.768,-4.252 3.347,-12.918l-0.389,-0.488Z" style="fill:#039f4a;"/><rect x="26.774" y="18.829" width="4.822" height="0.148" style="fill:#039f4a;"/><path d="M34.917,3.79c0.525,-0.387 1.27,-0.327 1.723,0.163c0.097,0.104 0.173,0.22 0.229,0.342c-0.524,0.388 -1.269,0.327 -1.723,-0.162c-0.097,-0.104 -0.173,-0.22 -0.229,-0.343Z" style="fill:#039f4a;"/><path d="M34.62,4.552c1.232,0.132 2.196,1.173 2.202,2.441c0.001,0.27 -0.041,0.53 -0.12,0.773c-1.232,-0.132 -2.196,-1.173 -2.202,-2.441c-0.001,-0.27 0.041,-0.529 0.12,-0.773Z" style="fill:#039f4a;"/><path d="M22.693,18.981c-3.56,-3.14 -4.374,-8.503 -1.705,-12.596c2.93,-4.495 8.958,-5.765 13.453,-2.834c0.013,0.008 0.026,0.017 0.038,0.025l-0.575,0.883c-3.995,-2.497 -9.279,-1.344 -11.863,2.62c-2.581,3.958 -1.51,9.25 2.375,11.902l-1.723,0Z" style="fill:#039f4a;"/><path d="M43.563,17.196c0,-0.933 -1.4,-0.966 -1.4,-1.507c0,-0.247 0.196,-0.415 0.49,-0.415c0.219,0 0.49,0.102 0.667,0.228l0.149,-0.49c-0.191,-0.135 -0.494,-0.242 -0.821,-0.242c-0.625,0 -1.068,0.401 -1.068,0.97c0,0.877 1.404,0.938 1.404,1.512c0,0.299 -0.21,0.457 -0.522,0.457c-0.369,0 -0.77,-0.186 -0.966,-0.354l-0.028,0.583c0.247,0.154 0.644,0.275 0.97,0.275c0.686,0 1.125,-0.424 1.125,-1.017Z" style="fill:#039f4a;fill-rule:nonzero;"/><path d="M45.312,17.63c-0.093,0.061 -0.224,0.107 -0.34,0.107c-0.154,0 -0.238,-0.06 -0.238,-0.284l0,-1.092l0.56,0c0,-0.168 0.004,-0.331 0.014,-0.434l-0.574,0l0,-0.616l-0.513,0.159l-0.042,0.457l-0.28,0l-0.112,0.434l0.387,0l0,1.138c0,0.486 0.215,0.7 0.653,0.7c0.159,0 0.355,-0.046 0.471,-0.126l0.014,-0.443Z" style="fill:#039f4a;fill-rule:nonzero;"/><path d="M47.085,15.876c-0.368,0.042 -0.611,0.196 -0.774,0.499l-0.042,-0.467c-0.135,0.028 -0.406,0.066 -0.555,0.07c0.028,0.192 0.042,0.416 0.042,0.686l0,0.672c0,0.271 -0.005,0.593 -0.028,0.793l0.606,0c-0.014,-0.121 -0.019,-0.317 -0.019,-0.48l0,-0.738c0,-0.359 0.383,-0.499 0.714,-0.447l0.056,-0.588Z" style="fill:#039f4a;fill-rule:nonzero;"/><path d="M49.348,16.958c0,-0.597 -0.284,-1.082 -0.947,-1.082c-0.686,0 -1.138,0.527 -1.138,1.217c0,0.602 0.364,1.12 1.119,1.12c0.327,0 0.602,-0.098 0.854,-0.261l0.014,-0.485c-0.214,0.158 -0.466,0.294 -0.807,0.294c-0.392,0 -0.602,-0.201 -0.634,-0.593l1.287,-0.037l0.252,-0.173Zm-1.53,-0.121c0.047,-0.308 0.247,-0.537 0.56,-0.537c0.289,0 0.424,0.178 0.462,0.504l-1.022,0.033Z" style="fill:#039f4a;fill-rule:nonzero;"/><path d="M51.844,18.129c-0.009,-0.121 -0.018,-0.317 -0.018,-0.48l0,-0.99c0,-0.489 -0.22,-0.783 -0.681,-0.783c-0.28,0 -0.602,0.177 -0.784,0.48l-0.033,-0.443c-0.14,0.014 -0.387,0.042 -0.551,0.042c0.019,0.201 0.028,0.509 0.028,0.779l0,0.602c0,0.271 -0.009,0.593 -0.028,0.793l0.607,0c-0.014,-0.121 -0.019,-0.317 -0.019,-0.48l0,-0.78c0,-0.256 0.28,-0.531 0.565,-0.531c0.257,0 0.336,0.186 0.336,0.457l0,0.541c0,0.271 -0.009,0.593 -0.033,0.793l0.611,0Z" style="fill:#039f4a;fill-rule:nonzero;"/><path d="M54.229,16.664c0,-0.186 -0.094,-0.41 -0.276,-0.569c0.056,-0.135 0.168,-0.187 0.392,-0.149l0.024,-0.444c-0.388,-0.046 -0.607,0.103 -0.677,0.434c-0.107,-0.037 -0.229,-0.06 -0.364,-0.06c-0.555,0 -0.966,0.382 -0.966,0.863c0,0.252 0.122,0.471 0.327,0.611c-0.196,0.112 -0.317,0.247 -0.317,0.415c0,0.15 0.107,0.262 0.266,0.336c-0.28,0.122 -0.458,0.294 -0.458,0.537c0,0.308 0.332,0.555 0.961,0.555c0.742,0 1.256,-0.387 1.256,-0.84c0,-0.41 -0.378,-0.564 -0.985,-0.564l-0.098,0c-0.406,0 -0.504,-0.047 -0.504,-0.15c0,-0.051 0.052,-0.116 0.145,-0.172c0.093,0.028 0.196,0.042 0.303,0.042c0.555,0 0.971,-0.341 0.971,-0.845Zm-0.938,1.554l0.074,0.005c0.355,0 0.523,0.074 0.523,0.228c0,0.201 -0.28,0.373 -0.709,0.373c-0.359,0 -0.523,-0.13 -0.523,-0.27c0,-0.112 0.098,-0.243 0.341,-0.345c0.084,0.004 0.191,0.009 0.294,0.009Zm0.424,-1.507c0,0.242 -0.168,0.429 -0.424,0.429c-0.243,0 -0.411,-0.149 -0.411,-0.443c0,-0.233 0.173,-0.429 0.429,-0.429c0.248,0 0.406,0.163 0.406,0.443Z" style="fill:#039f4a;fill-rule:nonzero;"/><path d="M56.02,17.63c-0.093,0.061 -0.224,0.107 -0.34,0.107c-0.154,0 -0.238,-0.06 -0.238,-0.284l0,-1.092l0.56,0c0,-0.168 0.004,-0.331 0.014,-0.434l-0.574,0l0,-0.616l-0.514,0.159l-0.042,0.457l-0.279,0l-0.112,0.434l0.387,0l0,1.138c0,0.486 0.214,0.7 0.653,0.7c0.159,0 0.355,-0.046 0.471,-0.126l0.014,-0.443Z" style="fill:#039f4a;fill-rule:nonzero;"/><path d="M58.502,18.129c-0.009,-0.121 -0.018,-0.317 -0.018,-0.48l0,-0.99c0,-0.489 -0.219,-0.783 -0.681,-0.783c-0.276,0 -0.598,0.172 -0.78,0.476l0,-1.046c0,-0.121 0.005,-0.438 0.019,-0.559c-0.14,0.028 -0.443,0.055 -0.606,0.069c0.018,0.201 0.028,0.49 0.028,0.761l0,1.782c0,0.271 -0.01,0.57 -0.028,0.77l0.606,0c-0.014,-0.121 -0.019,-0.294 -0.019,-0.457l0,-0.803c0.005,-0.266 0.28,-0.531 0.565,-0.531c0.257,0 0.336,0.186 0.336,0.457l0,0.541c0,0.271 -0.009,0.593 -0.033,0.793l0.611,0Z" style="fill:#039f4a;fill-rule:nonzero;"/><path d="M61.041,16.958c0,-0.597 -0.285,-1.082 -0.948,-1.082c-0.685,0 -1.138,0.527 -1.138,1.217c0,0.602 0.364,1.12 1.12,1.12c0.326,0 0.602,-0.098 0.854,-0.261l0.014,-0.485c-0.215,0.158 -0.467,0.294 -0.808,0.294c-0.391,0 -0.601,-0.201 -0.634,-0.593l1.288,-0.037l0.252,-0.173Zm-1.531,-0.121c0.047,-0.308 0.248,-0.537 0.56,-0.537c0.289,0 0.425,0.178 0.462,0.504l-1.022,0.033Z" style="fill:#039f4a;fill-rule:nonzero;"/><path d="M63.537,18.129c-0.01,-0.121 -0.019,-0.317 -0.019,-0.48l0,-0.99c0,-0.489 -0.219,-0.783 -0.681,-0.783c-0.28,0 -0.602,0.177 -0.784,0.48l-0.033,-0.443c-0.14,0.014 -0.387,0.042 -0.55,0.042c0.019,0.201 0.028,0.509 0.028,0.779l0,0.602c0,0.271 -0.009,0.593 -0.028,0.793l0.606,0c-0.014,-0.121 -0.018,-0.317 -0.018,-0.48l0,-0.78c0,-0.256 0.28,-0.531 0.564,-0.531c0.257,0 0.336,0.186 0.336,0.457l0,0.541c0,0.271 -0.009,0.593 -0.032,0.793l0.611,0Z" style="fill:#039f4a;fill-rule:nonzero;"/><path d="M64.713,18.129c-0.014,-0.121 -0.019,-0.289 -0.019,-0.452l0,-1.265c0,-0.163 0.005,-0.378 0.019,-0.499c-0.14,0.014 -0.444,0.033 -0.612,0.033c0.024,0.2 0.033,0.522 0.033,0.793l0,0.625c0,0.275 -0.009,0.565 -0.033,0.765l0.612,0Zm0.065,-2.986c0,-0.173 -0.145,-0.322 -0.336,-0.322c-0.201,0 -0.35,0.154 -0.35,0.345c0,0.173 0.14,0.322 0.336,0.322c0.201,0 0.35,-0.154 0.35,-0.345Z" style="fill:#039f4a;fill-rule:nonzero;"/><path d="M67.358,18.129c-0.009,-0.121 -0.019,-0.317 -0.019,-0.48l0,-0.99c0,-0.489 -0.219,-0.783 -0.681,-0.783c-0.28,0 -0.602,0.177 -0.784,0.48l-0.032,-0.443c-0.14,0.014 -0.388,0.042 -0.551,0.042c0.019,0.201 0.028,0.509 0.028,0.779l0,0.602c0,0.271 -0.009,0.593 -0.028,0.793l0.607,0c-0.014,-0.121 -0.019,-0.317 -0.019,-0.48l0,-0.78c0,-0.256 0.28,-0.531 0.565,-0.531c0.256,0 0.336,0.186 0.336,0.457l0,0.541c0,0.271 -0.01,0.593 -0.033,0.793l0.611,0Z" style="fill:#039f4a;fill-rule:nonzero;"/><path d="M69.742,16.664c0,-0.186 -0.093,-0.41 -0.275,-0.569c0.056,-0.135 0.168,-0.187 0.392,-0.149l0.023,-0.444c-0.387,-0.046 -0.606,0.103 -0.676,0.434c-0.108,-0.037 -0.229,-0.06 -0.364,-0.06c-0.555,0 -0.966,0.382 -0.966,0.863c0,0.252 0.121,0.471 0.327,0.611c-0.196,0.112 -0.318,0.247 -0.318,0.415c0,0.15 0.108,0.262 0.266,0.336c-0.28,0.122 -0.457,0.294 -0.457,0.537c0,0.308 0.331,0.555 0.961,0.555c0.742,0 1.255,-0.387 1.255,-0.84c0,-0.41 -0.378,-0.564 -0.984,-0.564l-0.098,0c-0.406,0 -0.504,-0.047 -0.504,-0.15c0,-0.051 0.051,-0.116 0.145,-0.172c0.093,0.028 0.195,0.042 0.303,0.042c0.555,0 0.97,-0.341 0.97,-0.845Zm-0.938,1.554l0.075,0.005c0.355,0 0.523,0.074 0.523,0.228c0,0.201 -0.28,0.373 -0.71,0.373c-0.359,0 -0.522,-0.13 -0.522,-0.27c0,-0.112 0.098,-0.243 0.341,-0.345c0.084,0.004 0.191,0.009 0.293,0.009Zm0.425,-1.507c0,0.242 -0.168,0.429 -0.425,0.429c-0.242,0 -0.41,-0.149 -0.41,-0.443c0,-0.233 0.173,-0.429 0.429,-0.429c0.247,0 0.406,0.163 0.406,0.443Z" style="fill:#039f4a;fill-rule:nonzero;"/><path d="M72.523,17.63c-0.093,0.061 -0.224,0.107 -0.341,0.107c-0.153,0 -0.237,-0.06 -0.237,-0.284l0,-1.092l0.559,0c0,-0.168 0.005,-0.331 0.014,-0.434l-0.573,0l0,-0.616l-0.514,0.159l-0.042,0.457l-0.28,0l-0.112,0.434l0.388,0l0,1.138c0,0.486 0.214,0.7 0.653,0.7c0.158,0 0.354,-0.046 0.471,-0.126l0.014,-0.443Z" style="fill:#039f4a;fill-rule:nonzero;"/><path d="M75.005,18.129c-0.009,-0.121 -0.018,-0.317 -0.018,-0.48l0,-0.99c0,-0.489 -0.22,-0.783 -0.682,-0.783c-0.275,0 -0.597,0.172 -0.779,0.476l0,-1.046c0,-0.121 0.005,-0.438 0.019,-0.559c-0.14,0.028 -0.443,0.055 -0.607,0.069c0.019,0.201 0.028,0.49 0.028,0.761l0,1.782c0,0.271 -0.009,0.57 -0.028,0.77l0.607,0c-0.014,-0.121 -0.019,-0.294 -0.019,-0.457l0,-0.803c0.005,-0.266 0.28,-0.531 0.565,-0.531c0.256,0 0.336,0.186 0.336,0.457l0,0.541c0,0.271 -0.01,0.593 -0.033,0.793l0.611,0Z" style="fill:#039f4a;fill-rule:nonzero;"/><path d="M77.543,16.958c0,-0.597 -0.284,-1.082 -0.947,-1.082c-0.686,0 -1.138,0.527 -1.138,1.217c0,0.602 0.364,1.12 1.12,1.12c0.326,0 0.602,-0.098 0.853,-0.261l0.014,-0.485c-0.214,0.158 -0.466,0.294 -0.807,0.294c-0.392,0 -0.602,-0.201 -0.634,-0.593l1.288,-0.037l0.251,-0.173Zm-1.53,-0.121c0.047,-0.308 0.247,-0.537 0.56,-0.537c0.289,0 0.425,0.178 0.462,0.504l-1.022,0.033Z" style="fill:#039f4a;fill-rule:nonzero;"/><path d="M81.654,17.261c-0.289,0.266 -0.602,0.439 -1.031,0.439c-0.625,0 -1.115,-0.434 -1.115,-1.222c0,-0.686 0.471,-1.2 1.143,-1.2c0.317,0 0.625,0.122 0.844,0.299l0.136,-0.523c-0.248,-0.172 -0.621,-0.284 -0.98,-0.284c-1.017,0 -1.75,0.788 -1.75,1.805c0,0.887 0.681,1.638 1.661,1.638c0.397,0 0.751,-0.121 1.064,-0.345l0.028,-0.607Z" style="fill:#039f4a;fill-rule:nonzero;"/><path d="M82.662,18.19c0.294,0 0.546,-0.149 0.676,-0.369c0.038,0.252 0.215,0.364 0.42,0.364c0.126,0 0.224,-0.032 0.322,-0.07l0.042,-0.354c-0.06,0.018 -0.116,0.032 -0.168,0.032c-0.098,0 -0.135,-0.051 -0.13,-0.182l0.023,-0.872c0.014,-0.537 -0.261,-0.863 -0.859,-0.863c-0.303,0 -0.597,0.088 -0.835,0.228l0.098,0.443c0.159,-0.111 0.406,-0.205 0.635,-0.205c0.303,0 0.429,0.14 0.42,0.429l-0.005,0.066c-0.061,-0.005 -0.121,-0.01 -0.182,-0.01c-0.751,0 -1.138,0.294 -1.138,0.738c0,0.382 0.266,0.625 0.681,0.625Zm0.168,-0.383c-0.224,0 -0.322,-0.126 -0.322,-0.298c0,-0.215 0.163,-0.388 0.616,-0.388c0.06,0 0.112,0.005 0.172,0.01l-0.009,0.21c-0.014,0.28 -0.201,0.466 -0.457,0.466Z" style="fill:#039f4a;fill-rule:nonzero;"/><path d="M86.67,16.958c0,-0.583 -0.355,-1.082 -0.947,-1.082c-0.285,0 -0.523,0.144 -0.686,0.331l-0.024,-0.289c-0.14,0.018 -0.378,0.037 -0.546,0.037c0.024,0.205 0.033,0.518 0.033,0.788l0,1.615c0,0.27 -0.009,0.583 -0.028,0.784c0.028,-0.005 0.574,-0.056 0.607,-0.056c-0.014,-0.117 -0.019,-0.276 -0.019,-0.434l0,-0.597c0.126,0.093 0.317,0.158 0.537,0.158c0.522,0 1.073,-0.49 1.073,-1.255Zm-0.56,0.056c0,0.406 -0.224,0.761 -0.574,0.761c-0.229,0 -0.373,-0.075 -0.476,-0.187l0,-0.994c0.117,-0.163 0.294,-0.275 0.485,-0.275c0.308,0 0.565,0.205 0.565,0.695Z" style="fill:#039f4a;fill-rule:nonzero;"/><path d="M87.65,18.19c0.293,0 0.545,-0.149 0.676,-0.369c0.037,0.252 0.215,0.364 0.42,0.364c0.126,0 0.224,-0.032 0.322,-0.07l0.042,-0.354c-0.061,0.018 -0.117,0.032 -0.168,0.032c-0.098,0 -0.135,-0.051 -0.131,-0.182l0.024,-0.872c0.014,-0.537 -0.262,-0.863 -0.859,-0.863c-0.303,0 -0.597,0.088 -0.835,0.228l0.098,0.443c0.159,-0.111 0.406,-0.205 0.634,-0.205c0.304,0 0.43,0.14 0.42,0.429l-0.004,0.066c-0.061,-0.005 -0.122,-0.01 -0.182,-0.01c-0.751,0 -1.139,0.294 -1.139,0.738c0,0.382 0.266,0.625 0.682,0.625Zm0.167,-0.383c-0.223,0 -0.321,-0.126 -0.321,-0.298c0,-0.215 0.163,-0.388 0.615,-0.388c0.061,0 0.112,0.005 0.173,0.01l-0.009,0.21c-0.014,0.28 -0.201,0.466 -0.458,0.466Z" style="fill:#039f4a;fill-rule:nonzero;"/><path d="M91.237,16.086c-0.191,-0.136 -0.452,-0.21 -0.704,-0.21c-0.7,0 -1.19,0.541 -1.19,1.227c0,0.616 0.467,1.11 1.148,1.11c0.299,0 0.481,-0.06 0.714,-0.2l0.018,-0.528c-0.219,0.196 -0.391,0.266 -0.639,0.266c-0.359,0 -0.686,-0.247 -0.686,-0.723c0,-0.387 0.266,-0.69 0.654,-0.69c0.2,0 0.396,0.065 0.56,0.2l0.125,-0.452Z" style="fill:#039f4a;fill-rule:nonzero;"/><path d="M92.306,18.129c-0.014,-0.121 -0.019,-0.289 -0.019,-0.452l0,-1.265c0,-0.163 0.005,-0.378 0.019,-0.499c-0.14,0.014 -0.443,0.033 -0.611,0.033c0.023,0.2 0.032,0.522 0.032,0.793l0,0.625c0,0.275 -0.009,0.565 -0.032,0.765l0.611,0Zm0.065,-2.986c0,-0.173 -0.144,-0.322 -0.336,-0.322c-0.2,0 -0.35,0.154 -0.35,0.345c0,0.173 0.14,0.322 0.336,0.322c0.201,0 0.35,-0.154 0.35,-0.345Z" style="fill:#039f4a;fill-rule:nonzero;"/><path d="M94.186,17.63c-0.093,0.061 -0.224,0.107 -0.34,0.107c-0.154,0 -0.238,-0.06 -0.238,-0.284l0,-1.092l0.56,0c0,-0.168 0.004,-0.331 0.014,-0.434l-0.574,0l0,-0.616l-0.514,0.159l-0.042,0.457l-0.279,0l-0.112,0.434l0.387,0l0,1.138c0,0.486 0.214,0.7 0.653,0.7c0.159,0 0.355,-0.046 0.471,-0.126l0.014,-0.443Z" style="fill:#039f4a;fill-rule:nonzero;"/><path d="M94.681,19.128c0.172,-0.019 0.396,-0.024 0.602,-0.024c0.074,-0.233 0.228,-0.597 0.294,-0.77l1.007,-2.412c-0.172,0.014 -0.373,0.019 -0.583,0.019c-0.079,0.229 -0.177,0.509 -0.284,0.784l-0.224,0.606l-0.542,-1.418c-0.028,0 -0.564,0.056 -0.601,0.056c0.107,0.201 0.261,0.546 0.382,0.821l0.266,0.602c0.084,0.191 0.14,0.345 0.21,0.523l-0.527,1.213Z" style="fill:#039f4a;fill-rule:nonzero;"/><path d="M99.958,14.821c-0.289,0.014 -0.616,0.023 -0.961,0.023c-0.36,0 -0.691,-0.009 -0.985,-0.023c0.024,0.224 0.033,0.854 0.033,1.153l0,1.031c0,0.303 -0.009,0.9 -0.033,1.124l0.649,0c-0.019,-0.13 -0.019,-0.49 -0.019,-0.672l0,-0.76l1.05,0.009c0,-0.173 0.005,-0.336 0.014,-0.476l-1.064,0.005l0,-0.639c0,-0.066 0,-0.187 0.005,-0.271c0.135,-0.005 0.284,-0.005 0.424,-0.005c0.318,0 0.588,0.005 0.854,0.01c0.005,-0.192 0.014,-0.341 0.033,-0.509Z" style="fill:#039f4a;fill-rule:nonzero;"/><path d="M102.305,16.991c0,-0.607 -0.42,-1.115 -1.087,-1.115c-0.686,0 -1.139,0.532 -1.139,1.227c0,0.602 0.42,1.11 1.078,1.11c0.695,0 1.148,-0.532 1.148,-1.222Zm-0.551,0.06c0,0.42 -0.214,0.714 -0.574,0.714c-0.331,0 -0.555,-0.238 -0.555,-0.737c0,-0.411 0.229,-0.704 0.574,-0.704c0.313,0 0.555,0.237 0.555,0.727Z" style="fill:#039f4a;fill-rule:nonzero;"/><path d="M104.115,15.876c-0.369,0.042 -0.611,0.196 -0.775,0.499l-0.042,-0.467c-0.135,0.028 -0.405,0.066 -0.555,0.07c0.028,0.192 0.042,0.416 0.042,0.686l0,0.672c0,0.271 -0.004,0.593 -0.028,0.793l0.607,0c-0.014,-0.121 -0.019,-0.317 -0.019,-0.48l0,-0.738c0,-0.359 0.383,-0.499 0.714,-0.447l0.056,-0.588Z" style="fill:#039f4a;fill-rule:nonzero;"/><path d="M107.624,17.639c-0.308,0.01 -0.621,0.014 -0.985,0.014c-0.14,0 -0.289,-0.004 -0.429,-0.004c-0.005,-0.08 -0.005,-0.201 -0.005,-0.266l0,-0.738l1.092,0.01c0,-0.168 0.005,-0.341 0.014,-0.476l-1.106,0.009l0,-0.606c0,-0.061 0,-0.182 0.005,-0.262c0.135,-0.004 0.289,-0.004 0.429,-0.004c0.317,0 0.588,0.004 0.854,0.009c0.005,-0.187 0.014,-0.341 0.037,-0.504c-0.294,0.014 -0.62,0.023 -0.965,0.023c-0.36,0 -0.691,-0.009 -0.985,-0.023c0.023,0.224 0.033,0.854 0.033,1.153l0,1.031c0,0.303 -0.01,0.919 -0.033,1.143c0.294,-0.019 0.672,-0.023 1.027,-0.023c0.34,0 0.695,0.004 0.984,0.023c0.005,-0.187 0.014,-0.35 0.033,-0.509Z" style="fill:#039f4a;fill-rule:nonzero;"/><path d="M110.115,18.129c-0.009,-0.121 -0.018,-0.317 -0.018,-0.48l0,-0.99c0,-0.489 -0.22,-0.783 -0.682,-0.783c-0.28,0 -0.602,0.177 -0.784,0.48l-0.032,-0.443c-0.14,0.014 -0.387,0.042 -0.551,0.042c0.019,0.201 0.028,0.509 0.028,0.779l0,0.602c0,0.271 -0.009,0.593 -0.028,0.793l0.607,0c-0.014,-0.121 -0.019,-0.317 -0.019,-0.48l0,-0.78c0,-0.256 0.28,-0.531 0.565,-0.531c0.256,0 0.336,0.186 0.336,0.457l0,0.541c0,0.271 -0.01,0.593 -0.033,0.793l0.611,0Z" style="fill:#039f4a;fill-rule:nonzero;"/><path d="M111.342,18.176l0.411,-0.033l0.919,-2.221c-0.173,0.014 -0.378,0.019 -0.588,0.019c-0.065,0.205 -0.214,0.602 -0.28,0.788l-0.242,0.677l-0.579,-1.493c-0.028,0 -0.555,0.056 -0.588,0.056c0.107,0.201 0.252,0.546 0.373,0.821l0.262,0.602c0.116,0.275 0.242,0.565 0.312,0.784Z" style="fill:#039f4a;fill-rule:nonzero;"/><path d="M113.601,18.129c-0.014,-0.121 -0.019,-0.289 -0.019,-0.452l0,-1.265c0,-0.163 0.005,-0.378 0.019,-0.499c-0.14,0.014 -0.444,0.033 -0.612,0.033c0.024,0.2 0.033,0.522 0.033,0.793l0,0.625c0,0.275 -0.009,0.565 -0.033,0.765l0.612,0Zm0.065,-2.986c0,-0.173 -0.145,-0.322 -0.336,-0.322c-0.201,0 -0.35,0.154 -0.35,0.345c0,0.173 0.14,0.322 0.336,0.322c0.201,0 0.35,-0.154 0.35,-0.345Z" style="fill:#039f4a;fill-rule:nonzero;"/><path d="M115.537,15.876c-0.369,0.042 -0.611,0.196 -0.775,0.499l-0.042,-0.467c-0.135,0.028 -0.406,0.066 -0.555,0.07c0.028,0.192 0.042,0.416 0.042,0.686l0,0.672c0,0.271 -0.005,0.593 -0.028,0.793l0.607,0c-0.014,-0.121 -0.019,-0.317 -0.019,-0.48l0,-0.738c0,-0.359 0.383,-0.499 0.714,-0.447l0.056,-0.588Z" style="fill:#039f4a;fill-rule:nonzero;"/><path d="M117.94,16.991c0,-0.607 -0.42,-1.115 -1.087,-1.115c-0.686,0 -1.139,0.532 -1.139,1.227c0,0.602 0.42,1.11 1.078,1.11c0.695,0 1.148,-0.532 1.148,-1.222Zm-0.551,0.06c0,0.42 -0.215,0.714 -0.574,0.714c-0.331,0 -0.555,-0.238 -0.555,-0.737c0,-0.411 0.229,-0.704 0.574,-0.704c0.312,0 0.555,0.237 0.555,0.727Z" style="fill:#039f4a;fill-rule:nonzero;"/><path d="M120.459,18.129c-0.009,-0.121 -0.018,-0.317 -0.018,-0.48l0,-0.99c0,-0.489 -0.22,-0.783 -0.682,-0.783c-0.28,0 -0.602,0.177 -0.784,0.48l-0.032,-0.443c-0.14,0.014 -0.387,0.042 -0.551,0.042c0.019,0.201 0.028,0.509 0.028,0.779l0,0.602c0,0.271 -0.009,0.593 -0.028,0.793l0.607,0c-0.014,-0.121 -0.019,-0.317 -0.019,-0.48l0,-0.78c0,-0.256 0.28,-0.531 0.565,-0.531c0.256,0 0.336,0.186 0.336,0.457l0,0.541c0,0.271 -0.01,0.593 -0.033,0.793l0.611,0Z" style="fill:#039f4a;fill-rule:nonzero;"/><path d="M124.402,18.129c-0.01,-0.121 -0.019,-0.317 -0.019,-0.48l0,-0.99c0,-0.489 -0.21,-0.783 -0.681,-0.783c-0.313,0 -0.588,0.182 -0.747,0.443c-0.074,-0.261 -0.275,-0.443 -0.625,-0.443c-0.261,0 -0.532,0.154 -0.723,0.424l-0.033,-0.387c-0.14,0.014 -0.382,0.042 -0.55,0.042c0.023,0.201 0.032,0.509 0.032,0.779l0,0.602c0,0.271 -0.009,0.593 -0.032,0.793l0.611,0c-0.014,-0.121 -0.019,-0.317 -0.019,-0.48l0,-0.826c0,-0.262 0.234,-0.485 0.509,-0.485c0.252,0 0.308,0.186 0.308,0.457l0,0.541c0,0.271 -0.01,0.593 -0.028,0.793l0.611,0c-0.014,-0.121 -0.019,-0.317 -0.019,-0.48l0,-0.826c0,-0.262 0.224,-0.485 0.504,-0.485c0.257,0 0.322,0.186 0.322,0.457l0,0.541c0,0.271 -0.009,0.593 -0.032,0.793l0.611,0Z" style="fill:#039f4a;fill-rule:nonzero;"/><path d="M126.94,16.958c0,-0.597 -0.285,-1.082 -0.947,-1.082c-0.686,0 -1.139,0.527 -1.139,1.217c0,0.602 0.364,1.12 1.12,1.12c0.327,0 0.602,-0.098 0.854,-0.261l0.014,-0.485c-0.215,0.158 -0.467,0.294 -0.807,0.294c-0.392,0 -0.602,-0.201 -0.635,-0.593l1.288,-0.037l0.252,-0.173Zm-1.53,-0.121c0.046,-0.308 0.247,-0.537 0.559,-0.537c0.29,0 0.425,0.178 0.462,0.504l-1.021,0.033Z" style="fill:#039f4a;fill-rule:nonzero;"/><path d="M129.436,18.129c-0.009,-0.121 -0.019,-0.317 -0.019,-0.48l0,-0.99c0,-0.489 -0.219,-0.783 -0.681,-0.783c-0.28,0 -0.602,0.177 -0.784,0.48l-0.032,-0.443c-0.14,0.014 -0.388,0.042 -0.551,0.042c0.019,0.201 0.028,0.509 0.028,0.779l0,0.602c0,0.271 -0.009,0.593 -0.028,0.793l0.607,0c-0.014,-0.121 -0.019,-0.317 -0.019,-0.48l0,-0.78c0,-0.256 0.28,-0.531 0.565,-0.531c0.256,0 0.336,0.186 0.336,0.457l0,0.541c0,0.271 -0.01,0.593 -0.033,0.793l0.611,0Z" style="fill:#039f4a;fill-rule:nonzero;"/><path d="M131.307,17.63c-0.093,0.061 -0.224,0.107 -0.341,0.107c-0.153,0 -0.237,-0.06 -0.237,-0.284l0,-1.092l0.559,0c0,-0.168 0.005,-0.331 0.014,-0.434l-0.573,0l0,-0.616l-0.514,0.159l-0.042,0.457l-0.28,0l-0.112,0.434l0.388,0l0,1.138c0,0.486 0.214,0.7 0.653,0.7c0.158,0 0.354,-0.046 0.471,-0.126l0.014,-0.443Z" style="fill:#039f4a;fill-rule:nonzero;"/><path d="M132.259,18.19c0.294,0 0.546,-0.149 0.676,-0.369c0.038,0.252 0.215,0.364 0.42,0.364c0.126,0 0.224,-0.032 0.322,-0.07l0.042,-0.354c-0.06,0.018 -0.116,0.032 -0.168,0.032c-0.098,0 -0.135,-0.051 -0.13,-0.182l0.023,-0.872c0.014,-0.537 -0.261,-0.863 -0.858,-0.863c-0.304,0 -0.598,0.088 -0.836,0.228l0.098,0.443c0.159,-0.111 0.406,-0.205 0.635,-0.205c0.303,0 0.429,0.14 0.42,0.429l-0.005,0.066c-0.061,-0.005 -0.121,-0.01 -0.182,-0.01c-0.751,0 -1.138,0.294 -1.138,0.738c0,0.382 0.266,0.625 0.681,0.625Zm0.168,-0.383c-0.224,0 -0.322,-0.126 -0.322,-0.298c0,-0.215 0.163,-0.388 0.616,-0.388c0.06,0 0.112,0.005 0.172,0.01l-0.009,0.21c-0.014,0.28 -0.2,0.466 -0.457,0.466Z" style="fill:#039f4a;fill-rule:nonzero;"/><path d="M134.676,18.129c-0.014,-0.121 -0.019,-0.294 -0.019,-0.457l0,-2.366c0,-0.121 0.005,-0.438 0.019,-0.559c-0.14,0.028 -0.443,0.055 -0.611,0.069c0.023,0.201 0.032,0.49 0.032,0.761l0,1.782c0,0.271 -0.009,0.57 -0.032,0.77l0.611,0Z" style="fill:#039f4a;fill-rule:nonzero;"/><path d="M136.78,18.19c0.294,0 0.546,-0.149 0.677,-0.369c0.037,0.252 0.214,0.364 0.42,0.364c0.125,0 0.223,-0.032 0.321,-0.07l0.042,-0.354c-0.06,0.018 -0.116,0.032 -0.168,0.032c-0.098,0 -0.135,-0.051 -0.13,-0.182l0.023,-0.872c0.014,-0.537 -0.261,-0.863 -0.858,-0.863c-0.304,0 -0.598,0.088 -0.836,0.228l0.098,0.443c0.159,-0.111 0.406,-0.205 0.635,-0.205c0.303,0 0.429,0.14 0.42,0.429l-0.005,0.066c-0.06,-0.005 -0.121,-0.01 -0.182,-0.01c-0.751,0 -1.138,0.294 -1.138,0.738c0,0.382 0.266,0.625 0.681,0.625Zm0.168,-0.383c-0.224,0 -0.322,-0.126 -0.322,-0.298c0,-0.215 0.163,-0.388 0.616,-0.388c0.061,0 0.112,0.005 0.173,0.01l-0.01,0.21c-0.014,0.28 -0.2,0.466 -0.457,0.466Z" style="fill:#039f4a;fill-rule:nonzero;"/><path d="M140.657,18.129c-0.009,-0.121 -0.018,-0.317 -0.018,-0.48l0,-0.99c0,-0.489 -0.22,-0.783 -0.682,-0.783c-0.28,0 -0.601,0.177 -0.783,0.48l-0.033,-0.443c-0.14,0.014 -0.387,0.042 -0.551,0.042c0.019,0.201 0.028,0.509 0.028,0.779l0,0.602c0,0.271 -0.009,0.593 -0.028,0.793l0.607,0c-0.014,-0.121 -0.019,-0.317 -0.019,-0.48l0,-0.78c0,-0.256 0.28,-0.531 0.565,-0.531c0.256,0 0.336,0.186 0.336,0.457l0,0.541c0,0.271 -0.01,0.593 -0.033,0.793l0.611,0Z" style="fill:#039f4a;fill-rule:nonzero;"/><path d="M142.216,15.876c-0.64,0 -1.111,0.546 -1.111,1.25c0,0.593 0.373,1.087 0.989,1.087c0.262,0 0.514,-0.135 0.649,-0.317l0.033,0.233l0.527,0c-0.024,-0.214 -0.033,-0.504 -0.033,-0.774l0,-2.1c0,-0.159 0.005,-0.387 0.019,-0.508c-0.14,0.028 -0.439,0.055 -0.607,0.069c0.024,0.201 0.024,0.49 0.024,0.761l0.004,0.448c-0.121,-0.089 -0.298,-0.149 -0.494,-0.149Zm0.06,0.443c0.187,0 0.332,0.065 0.434,0.168l0,1.008c-0.088,0.168 -0.27,0.275 -0.471,0.275c-0.313,0 -0.574,-0.233 -0.574,-0.705c0,-0.41 0.224,-0.746 0.611,-0.746Z" style="fill:#039f4a;fill-rule:nonzero;"/><path d="M147.549,17.261c-0.29,0.266 -0.602,0.439 -1.031,0.439c-0.626,0 -1.116,-0.434 -1.116,-1.222c0,-0.686 0.472,-1.2 1.143,-1.2c0.318,0 0.626,0.122 0.845,0.299l0.135,-0.523c-0.247,-0.172 -0.62,-0.284 -0.98,-0.284c-1.017,0 -1.749,0.788 -1.749,1.805c0,0.887 0.681,1.638 1.661,1.638c0.396,0 0.751,-0.121 1.064,-0.345l0.028,-0.607Z" style="fill:#039f4a;fill-rule:nonzero;"/><path d="M148.626,18.129c-0.014,-0.121 -0.018,-0.294 -0.018,-0.457l0,-2.366c0,-0.121 0.004,-0.438 0.018,-0.559c-0.14,0.028 -0.443,0.055 -0.611,0.069c0.024,0.201 0.033,0.49 0.033,0.761l0,1.782c0,0.271 -0.009,0.57 -0.033,0.77l0.611,0Z" style="fill:#039f4a;fill-rule:nonzero;"/><path d="M149.812,18.129c-0.014,-0.121 -0.019,-0.289 -0.019,-0.452l0,-1.265c0,-0.163 0.005,-0.378 0.019,-0.499c-0.14,0.014 -0.444,0.033 -0.612,0.033c0.024,0.2 0.033,0.522 0.033,0.793l0,0.625c0,0.275 -0.009,0.565 -0.033,0.765l0.612,0Zm0.065,-2.986c0,-0.173 -0.145,-0.322 -0.336,-0.322c-0.201,0 -0.35,0.154 -0.35,0.345c0,0.173 0.14,0.322 0.336,0.322c0.201,0 0.35,-0.154 0.35,-0.345Z" style="fill:#039f4a;fill-rule:nonzero;"/><path d="M153.763,18.129c-0.009,-0.121 -0.018,-0.317 -0.018,-0.48l0,-0.99c0,-0.489 -0.21,-0.783 -0.681,-0.783c-0.313,0 -0.588,0.182 -0.747,0.443c-0.075,-0.261 -0.275,-0.443 -0.625,-0.443c-0.261,0 -0.532,0.154 -0.723,0.424l-0.033,-0.387c-0.14,0.014 -0.383,0.042 -0.551,0.042c0.024,0.201 0.033,0.509 0.033,0.779l0,0.602c0,0.271 -0.009,0.593 -0.033,0.793l0.612,0c-0.014,-0.121 -0.019,-0.317 -0.019,-0.48l0,-0.826c0,-0.262 0.233,-0.485 0.509,-0.485c0.251,0 0.307,0.186 0.307,0.457l0,0.541c0,0.271 -0.009,0.593 -0.028,0.793l0.612,0c-0.014,-0.121 -0.019,-0.317 -0.019,-0.48l0,-0.826c0,-0.262 0.224,-0.485 0.504,-0.485c0.257,0 0.322,0.186 0.322,0.457l0,0.541c0,0.271 -0.009,0.593 -0.033,0.793l0.611,0Z" style="fill:#039f4a;fill-rule:nonzero;"/><path d="M154.869,18.19c0.294,0 0.546,-0.149 0.677,-0.369c0.037,0.252 0.214,0.364 0.42,0.364c0.126,0 0.224,-0.032 0.322,-0.07l0.042,-0.354c-0.061,0.018 -0.117,0.032 -0.168,0.032c-0.098,0 -0.136,-0.051 -0.131,-0.182l0.023,-0.872c0.014,-0.537 -0.261,-0.863 -0.858,-0.863c-0.303,0 -0.597,0.088 -0.835,0.228l0.098,0.443c0.158,-0.111 0.406,-0.205 0.634,-0.205c0.303,0 0.429,0.14 0.42,0.429l-0.005,0.066c-0.06,-0.005 -0.121,-0.01 -0.182,-0.01c-0.751,0 -1.138,0.294 -1.138,0.738c0,0.382 0.266,0.625 0.681,0.625Zm0.168,-0.383c-0.224,0 -0.322,-0.126 -0.322,-0.298c0,-0.215 0.164,-0.388 0.616,-0.388c0.061,0 0.112,0.005 0.173,0.01l-0.01,0.21c-0.014,0.28 -0.2,0.466 -0.457,0.466Z" style="fill:#039f4a;fill-rule:nonzero;"/><path d="M157.977,17.63c-0.094,0.061 -0.224,0.107 -0.341,0.107c-0.154,0 -0.238,-0.06 -0.238,-0.284l0,-1.092l0.56,0c0,-0.168 0.005,-0.331 0.014,-0.434l-0.574,0l0,-0.616l-0.513,0.159l-0.042,0.457l-0.28,0l-0.112,0.434l0.387,0l0,1.138c0,0.486 0.215,0.7 0.653,0.7c0.159,0 0.355,-0.046 0.472,-0.126l0.014,-0.443Z" style="fill:#039f4a;fill-rule:nonzero;"/><path d="M160.361,16.958c0,-0.597 -0.285,-1.082 -0.947,-1.082c-0.686,0 -1.139,0.527 -1.139,1.217c0,0.602 0.364,1.12 1.12,1.12c0.327,0 0.602,-0.098 0.854,-0.261l0.014,-0.485c-0.215,0.158 -0.467,0.294 -0.807,0.294c-0.392,0 -0.602,-0.201 -0.635,-0.593l1.288,-0.037l0.252,-0.173Zm-1.531,-0.121c0.047,-0.308 0.248,-0.537 0.56,-0.537c0.29,0 0.425,0.178 0.462,0.504l-1.022,0.033Z" style="fill:#039f4a;fill-rule:nonzero;"/><path d="M164.471,17.261c-0.289,0.266 -0.602,0.439 -1.031,0.439c-0.625,0 -1.115,-0.434 -1.115,-1.222c0,-0.686 0.471,-1.2 1.143,-1.2c0.318,0 0.625,0.122 0.845,0.299l0.135,-0.523c-0.247,-0.172 -0.62,-0.284 -0.98,-0.284c-1.017,0 -1.749,0.788 -1.749,1.805c0,0.887 0.681,1.638 1.661,1.638c0.396,0 0.751,-0.121 1.063,-0.345l0.028,-0.607Z" style="fill:#039f4a;fill-rule:nonzero;"/><path d="M167.01,18.129c-0.01,-0.121 -0.019,-0.317 -0.019,-0.48l0,-0.99c0,-0.489 -0.219,-0.783 -0.681,-0.783c-0.276,0 -0.598,0.172 -0.779,0.476l0,-1.046c0,-0.121 0.004,-0.438 0.018,-0.559c-0.14,0.028 -0.443,0.055 -0.606,0.069c0.018,0.201 0.028,0.49 0.028,0.761l0,1.782c0,0.271 -0.01,0.57 -0.028,0.77l0.606,0c-0.014,-0.121 -0.018,-0.294 -0.018,-0.457l0,-0.803c0.004,-0.266 0.279,-0.531 0.564,-0.531c0.257,0 0.336,0.186 0.336,0.457l0,0.541c0,0.271 -0.009,0.593 -0.033,0.793l0.612,0Z" style="fill:#039f4a;fill-rule:nonzero;"/><path d="M168.115,18.19c0.294,0 0.546,-0.149 0.677,-0.369c0.037,0.252 0.215,0.364 0.42,0.364c0.126,0 0.224,-0.032 0.322,-0.07l0.042,-0.354c-0.061,0.018 -0.117,0.032 -0.168,0.032c-0.098,0 -0.136,-0.051 -0.131,-0.182l0.023,-0.872c0.014,-0.537 -0.261,-0.863 -0.858,-0.863c-0.303,0 -0.597,0.088 -0.835,0.228l0.098,0.443c0.158,-0.111 0.406,-0.205 0.634,-0.205c0.304,0 0.43,0.14 0.42,0.429l-0.004,0.066c-0.061,-0.005 -0.122,-0.01 -0.182,-0.01c-0.752,0 -1.139,0.294 -1.139,0.738c0,0.382 0.266,0.625 0.681,0.625Zm0.168,-0.383c-0.224,0 -0.322,-0.126 -0.322,-0.298c0,-0.215 0.164,-0.388 0.616,-0.388c0.061,0 0.112,0.005 0.173,0.01l-0.009,0.21c-0.014,0.28 -0.201,0.466 -0.458,0.466Z" style="fill:#039f4a;fill-rule:nonzero;"/><path d="M171.993,18.129c-0.01,-0.121 -0.019,-0.317 -0.019,-0.48l0,-0.99c0,-0.489 -0.219,-0.783 -0.681,-0.783c-0.28,0 -0.602,0.177 -0.784,0.48l-0.033,-0.443c-0.14,0.014 -0.387,0.042 -0.55,0.042c0.018,0.201 0.028,0.509 0.028,0.779l0,0.602c0,0.271 -0.01,0.593 -0.028,0.793l0.606,0c-0.014,-0.121 -0.018,-0.317 -0.018,-0.48l0,-0.78c0,-0.256 0.279,-0.531 0.564,-0.531c0.257,0 0.336,0.186 0.336,0.457l0,0.541c0,0.271 -0.009,0.593 -0.033,0.793l0.612,0Z" style="fill:#039f4a;fill-rule:nonzero;"/><path d="M174.377,16.664c0,-0.186 -0.094,-0.41 -0.275,-0.569c0.056,-0.135 0.167,-0.187 0.391,-0.149l0.024,-0.444c-0.387,-0.046 -0.607,0.103 -0.677,0.434c-0.107,-0.037 -0.228,-0.06 -0.364,-0.06c-0.555,0 -0.966,0.382 -0.966,0.863c0,0.252 0.122,0.471 0.327,0.611c-0.196,0.112 -0.317,0.247 -0.317,0.415c0,0.15 0.107,0.262 0.266,0.336c-0.28,0.122 -0.457,0.294 -0.457,0.537c0,0.308 0.331,0.555 0.961,0.555c0.742,0 1.255,-0.387 1.255,-0.84c0,-0.41 -0.378,-0.564 -0.985,-0.564l-0.098,0c-0.406,0 -0.504,-0.047 -0.504,-0.15c0,-0.051 0.052,-0.116 0.145,-0.172c0.093,0.028 0.196,0.042 0.303,0.042c0.556,0 0.971,-0.341 0.971,-0.845Zm-0.938,1.554l0.075,0.005c0.354,0 0.522,0.074 0.522,0.228c0,0.201 -0.28,0.373 -0.709,0.373c-0.359,0 -0.523,-0.13 -0.523,-0.27c0,-0.112 0.098,-0.243 0.341,-0.345c0.084,0.004 0.191,0.009 0.294,0.009Zm0.425,-1.507c0,0.242 -0.168,0.429 -0.425,0.429c-0.243,0 -0.411,-0.149 -0.411,-0.443c0,-0.233 0.173,-0.429 0.43,-0.429c0.247,0 0.406,0.163 0.406,0.443Z" style="fill:#039f4a;fill-rule:nonzero;"/><path d="M176.831,16.958c0,-0.597 -0.285,-1.082 -0.947,-1.082c-0.686,0 -1.139,0.527 -1.139,1.217c0,0.602 0.364,1.12 1.12,1.12c0.327,0 0.602,-0.098 0.854,-0.261l0.014,-0.485c-0.215,0.158 -0.467,0.294 -0.807,0.294c-0.392,0 -0.602,-0.201 -0.635,-0.593l1.288,-0.037l0.252,-0.173Zm-1.53,-0.121c0.046,-0.308 0.247,-0.537 0.56,-0.537c0.289,0 0.424,0.178 0.461,0.504l-1.021,0.033Z" style="fill:#039f4a;fill-rule:nonzero;"/><path d="M180.419,17.63c-0.308,0.005 -0.625,0.009 -0.994,0.009c-0.135,0 -0.275,0 -0.401,-0.004c-0.009,-0.084 -0.009,-0.206 -0.009,-0.276l0,-1.843c0,-0.182 0.004,-0.555 0.018,-0.69c-0.154,0.018 -0.466,0.023 -0.648,0.023c0.023,0.224 0.032,0.826 0.032,1.125l0,1.031c0,0.298 -0.009,0.919 -0.032,1.143c0.294,-0.019 0.658,-0.023 1.008,-0.023c0.349,0 0.699,0.004 0.989,0.023c0.004,-0.187 0.018,-0.355 0.037,-0.518Z" style="fill:#039f4a;fill-rule:nonzero;"/><path d="M181.319,18.19c0.294,0 0.546,-0.149 0.677,-0.369c0.037,0.252 0.215,0.364 0.42,0.364c0.126,0 0.224,-0.032 0.322,-0.07l0.042,-0.354c-0.061,0.018 -0.117,0.032 -0.168,0.032c-0.098,0 -0.135,-0.051 -0.131,-0.182l0.024,-0.872c0.014,-0.537 -0.262,-0.863 -0.859,-0.863c-0.303,0 -0.597,0.088 -0.835,0.228l0.098,0.443c0.159,-0.111 0.406,-0.205 0.634,-0.205c0.304,0 0.43,0.14 0.42,0.429l-0.004,0.066c-0.061,-0.005 -0.122,-0.01 -0.182,-0.01c-0.751,0 -1.139,0.294 -1.139,0.738c0,0.382 0.266,0.625 0.681,0.625Zm0.168,-0.383c-0.224,0 -0.322,-0.126 -0.322,-0.298c0,-0.215 0.164,-0.388 0.616,-0.388c0.061,0 0.112,0.005 0.173,0.01l-0.009,0.21c-0.014,0.28 -0.201,0.466 -0.458,0.466Z" style="fill:#039f4a;fill-rule:nonzero;"/><path d="M183.61,18.171l0.383,-0.028l0.499,-1.409l0.21,0.569c0.117,0.322 0.219,0.63 0.289,0.868l0.378,-0.028l0.808,-2.221c-0.178,0.014 -0.35,0.019 -0.56,0.019c-0.052,0.182 -0.201,0.672 -0.248,0.807l-0.177,0.56l-0.495,-1.395l-0.387,0.028c-0.07,0.215 -0.172,0.518 -0.275,0.812l-0.196,0.56l-0.453,-1.4c-0.037,0 -0.545,0.051 -0.583,0.051c0.093,0.206 0.224,0.551 0.327,0.826l0.224,0.602c0.098,0.275 0.2,0.56 0.256,0.779Z" style="fill:#039f4a;fill-rule:nonzero;"/><path d="M187.245,15.876c-0.509,0 -0.84,0.308 -0.84,0.69c0,0.714 1.101,0.602 1.101,0.98c0,0.149 -0.149,0.233 -0.368,0.233c-0.262,0 -0.565,-0.116 -0.761,-0.252l-0.023,0.495c0.182,0.117 0.536,0.191 0.784,0.191c0.504,0 0.9,-0.27 0.9,-0.732c0,-0.691 -1.106,-0.626 -1.106,-0.943c0,-0.163 0.15,-0.228 0.336,-0.228c0.192,0 0.383,0.065 0.537,0.168l0.145,-0.434c-0.154,-0.089 -0.425,-0.168 -0.705,-0.168Z" style="fill:#039f4a;fill-rule:nonzero;"/><path d="M190.063,18.129c-0.014,-0.121 -0.019,-0.289 -0.019,-0.452l0,-1.265c0,-0.163 0.005,-0.378 0.019,-0.499c-0.14,0.014 -0.443,0.033 -0.611,0.033c0.023,0.2 0.033,0.522 0.033,0.793l0,0.625c0,0.275 -0.01,0.565 -0.033,0.765l0.611,0Zm0.065,-2.986c0,-0.173 -0.144,-0.322 -0.335,-0.322c-0.201,0 -0.35,0.154 -0.35,0.345c0,0.173 0.14,0.322 0.336,0.322c0.2,0 0.349,-0.154 0.349,-0.345Z" style="fill:#039f4a;fill-rule:nonzero;"/><path d="M192.709,18.129c-0.01,-0.121 -0.019,-0.317 -0.019,-0.48l0,-0.99c0,-0.489 -0.219,-0.783 -0.681,-0.783c-0.28,0 -0.602,0.177 -0.784,0.48l-0.033,-0.443c-0.14,0.014 -0.387,0.042 -0.55,0.042c0.018,0.201 0.028,0.509 0.028,0.779l0,0.602c0,0.271 -0.01,0.593 -0.028,0.793l0.606,0c-0.014,-0.121 -0.018,-0.317 -0.018,-0.48l0,-0.78c0,-0.256 0.28,-0.531 0.564,-0.531c0.257,0 0.336,0.186 0.336,0.457l0,0.541c0,0.271 -0.009,0.593 -0.033,0.793l0.612,0Z" style="fill:#039f4a;fill-rule:nonzero;"/><path d="M194.006,18.129l0.634,0c0.094,-0.224 0.238,-0.592 0.332,-0.821l0.004,-0.014l1.321,0l0.378,0.873l0.648,-0.038c-0.145,-0.28 -0.317,-0.658 -0.453,-0.952l-1.091,-2.398l-0.299,0.037c-0.103,0.266 -0.219,0.532 -0.397,0.924l-1.077,2.389Zm1.628,-2.407l0.481,1.138l-0.962,0l0.481,-1.138Z" style="fill:#039f4a;fill-rule:nonzero;"/><path d="M198.41,15.876c-0.508,0 -0.84,0.308 -0.84,0.69c0,0.714 1.101,0.602 1.101,0.98c0,0.149 -0.149,0.233 -0.368,0.233c-0.261,0 -0.565,-0.116 -0.761,-0.252l-0.023,0.495c0.182,0.117 0.537,0.191 0.784,0.191c0.504,0 0.9,-0.27 0.9,-0.732c0,-0.691 -1.105,-0.626 -1.105,-0.943c0,-0.163 0.149,-0.228 0.336,-0.228c0.191,0 0.382,0.065 0.536,0.168l0.145,-0.434c-0.154,-0.089 -0.425,-0.168 -0.705,-0.168Z" style="fill:#039f4a;fill-rule:nonzero;"/><path d="M200.239,18.129c-0.014,-0.121 -0.019,-0.289 -0.019,-0.452l0,-1.265c0,-0.163 0.005,-0.378 0.019,-0.499c-0.14,0.014 -0.443,0.033 -0.611,0.033c0.023,0.2 0.033,0.522 0.033,0.793l0,0.625c0,0.275 -0.01,0.565 -0.033,0.765l0.611,0Zm0.065,-2.986c0,-0.173 -0.144,-0.322 -0.335,-0.322c-0.201,0 -0.35,0.154 -0.35,0.345c0,0.173 0.14,0.322 0.336,0.322c0.2,0 0.349,-0.154 0.349,-0.345Z" style="fill:#039f4a;fill-rule:nonzero;"/><path d="M201.354,18.19c0.294,0 0.546,-0.149 0.677,-0.369c0.037,0.252 0.214,0.364 0.42,0.364c0.126,0 0.224,-0.032 0.322,-0.07l0.042,-0.354c-0.061,0.018 -0.117,0.032 -0.168,0.032c-0.098,0 -0.136,-0.051 -0.131,-0.182l0.023,-0.872c0.014,-0.537 -0.261,-0.863 -0.858,-0.863c-0.303,0 -0.597,0.088 -0.835,0.228l0.098,0.443c0.158,-0.111 0.406,-0.205 0.634,-0.205c0.304,0 0.429,0.14 0.42,0.429l-0.005,0.066c-0.06,-0.005 -0.121,-0.01 -0.181,-0.01c-0.752,0 -1.139,0.294 -1.139,0.738c0,0.382 0.266,0.625 0.681,0.625Zm0.168,-0.383c-0.224,0 -0.322,-0.126 -0.322,-0.298c0,-0.215 0.164,-0.388 0.616,-0.388c0.061,0 0.112,0.005 0.173,0.01l-0.01,0.21c-0.014,0.28 -0.2,0.466 -0.457,0.466Z" style="fill:#039f4a;fill-rule:nonzero;"/><path d="M204.69,18.19c0.294,0 0.546,-0.149 0.677,-0.369c0.037,0.252 0.214,0.364 0.42,0.364c0.126,0 0.224,-0.032 0.322,-0.07l0.042,-0.354c-0.061,0.018 -0.117,0.032 -0.168,0.032c-0.098,0 -0.136,-0.051 -0.131,-0.182l0.023,-0.872c0.014,-0.537 -0.261,-0.863 -0.858,-0.863c-0.303,0 -0.597,0.088 -0.835,0.228l0.098,0.443c0.158,-0.111 0.406,-0.205 0.634,-0.205c0.304,0 0.43,0.14 0.42,0.429l-0.004,0.066c-0.061,-0.005 -0.122,-0.01 -0.182,-0.01c-0.752,0 -1.139,0.294 -1.139,0.738c0,0.382 0.266,0.625 0.681,0.625Zm0.168,-0.383c-0.224,0 -0.322,-0.126 -0.322,-0.298c0,-0.215 0.164,-0.388 0.616,-0.388c0.061,0 0.112,0.005 0.173,0.01l-0.009,0.21c-0.014,0.28 -0.201,0.466 -0.458,0.466Z" style="fill:#039f4a;fill-rule:nonzero;"/><path d="M208.568,18.129c-0.01,-0.121 -0.019,-0.317 -0.019,-0.48l0,-0.99c0,-0.489 -0.219,-0.783 -0.681,-0.783c-0.28,0 -0.602,0.177 -0.784,0.48l-0.033,-0.443c-0.14,0.014 -0.387,0.042 -0.55,0.042c0.018,0.201 0.028,0.509 0.028,0.779l0,0.602c0,0.271 -0.01,0.593 -0.028,0.793l0.606,0c-0.014,-0.121 -0.018,-0.317 -0.018,-0.48l0,-0.78c0,-0.256 0.279,-0.531 0.564,-0.531c0.257,0 0.336,0.186 0.336,0.457l0,0.541c0,0.271 -0.009,0.593 -0.033,0.793l0.612,0Z" style="fill:#039f4a;fill-rule:nonzero;"/><path d="M210.126,15.876c-0.639,0 -1.111,0.546 -1.111,1.25c0,0.593 0.374,1.087 0.99,1.087c0.261,0 0.513,-0.135 0.648,-0.317l0.033,0.233l0.527,0c-0.023,-0.214 -0.033,-0.504 -0.033,-0.774l0,-2.1c0,-0.159 0.005,-0.387 0.019,-0.508c-0.14,0.028 -0.439,0.055 -0.607,0.069c0.024,0.201 0.024,0.49 0.024,0.761l0.004,0.448c-0.121,-0.089 -0.298,-0.149 -0.494,-0.149Zm0.061,0.443c0.186,0 0.331,0.065 0.433,0.168l0,1.008c-0.088,0.168 -0.27,0.275 -0.471,0.275c-0.312,0 -0.574,-0.233 -0.574,-0.705c0,-0.41 0.224,-0.746 0.612,-0.746Z" style="fill:#039f4a;fill-rule:nonzero;"/><path d="M214.068,17.63c-0.093,0.061 -0.223,0.107 -0.34,0.107c-0.154,0 -0.238,-0.06 -0.238,-0.284l0,-1.092l0.56,0c0,-0.168 0.004,-0.331 0.014,-0.434l-0.574,0l0,-0.616l-0.513,0.159l-0.042,0.457l-0.28,0l-0.112,0.434l0.387,0l0,1.138c0,0.486 0.215,0.7 0.653,0.7c0.159,0 0.355,-0.046 0.471,-0.126l0.014,-0.443Z" style="fill:#039f4a;fill-rule:nonzero;"/><path d="M216.551,18.129c-0.01,-0.121 -0.019,-0.317 -0.019,-0.48l0,-0.99c0,-0.489 -0.219,-0.783 -0.681,-0.783c-0.275,0 -0.597,0.172 -0.779,0.476l0,-1.046c0,-0.121 0.004,-0.438 0.018,-0.559c-0.14,0.028 -0.443,0.055 -0.606,0.069c0.018,0.201 0.028,0.49 0.028,0.761l0,1.782c0,0.271 -0.01,0.57 -0.028,0.77l0.606,0c-0.014,-0.121 -0.018,-0.294 -0.018,-0.457l0,-0.803c0.004,-0.266 0.28,-0.531 0.564,-0.531c0.257,0 0.336,0.186 0.336,0.457l0,0.541c0,0.271 -0.009,0.593 -0.033,0.793l0.612,0Z" style="fill:#039f4a;fill-rule:nonzero;"/><path d="M219.089,16.958c0,-0.597 -0.285,-1.082 -0.947,-1.082c-0.686,0 -1.139,0.527 -1.139,1.217c0,0.602 0.364,1.12 1.12,1.12c0.327,0 0.602,-0.098 0.854,-0.261l0.014,-0.485c-0.215,0.158 -0.467,0.294 -0.807,0.294c-0.392,0 -0.602,-0.201 -0.635,-0.593l1.288,-0.037l0.252,-0.173Zm-1.531,-0.121c0.047,-0.308 0.248,-0.537 0.56,-0.537c0.29,0 0.425,0.178 0.462,0.504l-1.022,0.033Z" style="fill:#039f4a;fill-rule:nonzero;"/><path d="M221.272,16.977c0.07,0 0.145,0.004 0.215,0.004c0.985,0 1.4,-0.513 1.4,-1.152c0,-0.555 -0.429,-1.003 -1.274,-1.003c-0.303,0 -0.807,0.023 -0.975,0.023c0.023,0.224 0.033,0.826 0.033,1.125l0,1.031c0,0.303 -0.01,0.9 -0.033,1.124l0.648,0c-0.009,-0.13 -0.014,-0.494 -0.014,-0.672l0,-0.48Zm1.022,-1.069c0,0.392 -0.298,0.616 -0.798,0.616c-0.074,0 -0.154,-0.005 -0.228,-0.014l0,-1.185c0.126,-0.009 0.196,-0.009 0.312,-0.009c0.49,0 0.714,0.21 0.714,0.592Z" style="fill:#039f4a;fill-rule:nonzero;"/><path d="M223.694,18.19c0.294,0 0.546,-0.149 0.677,-0.369c0.037,0.252 0.214,0.364 0.419,0.364c0.126,0 0.224,-0.032 0.322,-0.07l0.042,-0.354c-0.06,0.018 -0.116,0.032 -0.168,0.032c-0.098,0 -0.135,-0.051 -0.13,-0.182l0.023,-0.872c0.014,-0.537 -0.261,-0.863 -0.858,-0.863c-0.304,0 -0.598,0.088 -0.836,0.228l0.098,0.443c0.159,-0.111 0.406,-0.205 0.635,-0.205c0.303,0 0.429,0.14 0.42,0.429l-0.005,0.066c-0.06,-0.005 -0.121,-0.01 -0.182,-0.01c-0.751,0 -1.138,0.294 -1.138,0.738c0,0.382 0.266,0.625 0.681,0.625Zm0.168,-0.383c-0.224,0 -0.322,-0.126 -0.322,-0.298c0,-0.215 0.163,-0.388 0.616,-0.388c0.061,0 0.112,0.005 0.173,0.01l-0.01,0.21c-0.014,0.28 -0.2,0.466 -0.457,0.466Z" style="fill:#039f4a;fill-rule:nonzero;"/><path d="M227.282,16.086c-0.191,-0.136 -0.453,-0.21 -0.705,-0.21c-0.699,0 -1.189,0.541 -1.189,1.227c0,0.616 0.466,1.11 1.147,1.11c0.299,0 0.481,-0.06 0.714,-0.2l0.019,-0.528c-0.219,0.196 -0.392,0.266 -0.639,0.266c-0.36,0 -0.686,-0.247 -0.686,-0.723c0,-0.387 0.266,-0.69 0.653,-0.69c0.201,0 0.397,0.065 0.56,0.2l0.126,-0.452Z" style="fill:#039f4a;fill-rule:nonzero;"/><path d="M228.35,18.129c-0.014,-0.121 -0.018,-0.289 -0.018,-0.452l0,-1.265c0,-0.163 0.004,-0.378 0.018,-0.499c-0.14,0.014 -0.443,0.033 -0.611,0.033c0.024,0.2 0.033,0.522 0.033,0.793l0,0.625c0,0.275 -0.009,0.565 -0.033,0.765l0.611,0Zm0.066,-2.986c0,-0.173 -0.145,-0.322 -0.336,-0.322c-0.201,0 -0.35,0.154 -0.35,0.345c0,0.173 0.14,0.322 0.336,0.322c0.2,0 0.35,-0.154 0.35,-0.345Z" style="fill:#039f4a;fill-rule:nonzero;"/><path d="M231.159,18.129c-0.014,-0.121 -0.018,-0.289 -0.018,-0.452l0,-1.265c0,-0.163 0.004,-0.378 0.018,-0.499c-0.14,0.014 -0.443,0.033 -0.611,0.033c0.023,0.2 0.033,0.522 0.033,0.793l0,0.625c0,0.275 -0.01,0.565 -0.033,0.765l0.611,0Zm0.066,-2.986c0,-0.173 -0.145,-0.322 -0.336,-0.322c-0.201,0 -0.35,0.154 -0.35,0.345c0,0.173 0.14,0.322 0.336,0.322c0.2,0 0.35,-0.154 0.35,-0.345Zm-0.985,-0.364c-0.07,-0.018 -0.149,-0.037 -0.266,-0.037c-0.55,0 -0.849,0.406 -0.849,1.026l0,0.159l-0.294,0l-0.112,0.434l0.406,0l0,1.008c0,0.27 -0.009,0.56 -0.033,0.76l0.607,0c-0.014,-0.116 -0.019,-0.289 -0.019,-0.452l0,-1.316l0.546,0c0,-0.168 0.005,-0.331 0.019,-0.434l-0.565,0l0,-0.196c0,-0.341 0.126,-0.509 0.387,-0.509c0.075,0 0.145,0.01 0.21,0.033l-0.037,-0.476Z" style="fill:#039f4a;fill-rule:nonzero;"/><path d="M233.515,16.086c-0.191,-0.136 -0.452,-0.21 -0.704,-0.21c-0.7,0 -1.19,0.541 -1.19,1.227c0,0.616 0.467,1.11 1.148,1.11c0.298,0 0.48,-0.06 0.714,-0.2l0.018,-0.528c-0.219,0.196 -0.392,0.266 -0.639,0.266c-0.359,0 -0.686,-0.247 -0.686,-0.723c0,-0.387 0.266,-0.69 0.654,-0.69c0.2,0 0.396,0.065 0.559,0.2l0.126,-0.452Z" style="fill:#039f4a;fill-rule:nonzero;"/><path d="M48.216,8.458c0,-1.938 -1.402,-3.586 -4.068,-3.586c-1.017,0 -1.702,0.053 -2.088,0.053c0.054,0.514 0.075,1.895 0.075,2.58l0,2.366c0,0.696 -0.021,2.066 -0.075,2.58l2.27,0c2.323,0 3.886,-1.659 3.886,-3.993Zm-1.081,0.139c0,1.585 -0.824,2.944 -2.976,2.944c-0.396,0 -0.643,-0.021 -0.964,-0.053c-0.01,-0.214 -0.01,-0.418 -0.01,-0.6l0,-4.41c0,-0.172 0,-0.472 0.01,-0.664c0.289,-0.022 0.589,-0.032 0.932,-0.032c1.948,0 3.008,1.124 3.008,2.815Z" style="fill:#fff;fill-rule:nonzero;"/><path d="M53.783,9.807c0,-1.338 -0.6,-2.43 -2.055,-2.43c-1.521,0 -2.495,1.22 -2.495,2.762c0,1.338 0.782,2.505 2.43,2.505c0.707,0 1.296,-0.225 1.842,-0.589l0.042,-1.006c-0.481,0.396 -1.038,0.728 -1.787,0.728c-0.953,0 -1.467,-0.503 -1.542,-1.499l2.923,-0.086l0.642,-0.385Zm-3.544,-0.268c0.14,-0.76 0.643,-1.338 1.435,-1.338c0.739,0 1.081,0.439 1.188,1.263l-2.623,0.075Z" style="fill:#fff;fill-rule:nonzero;"/><path d="M56.406,12.569l0.674,-0.075l2.088,-5.032c-0.311,0.033 -0.707,0.043 -1.092,0.043c-0.161,0.514 -0.535,1.478 -0.685,1.884l-0.621,1.66l-1.445,-3.608l-1.071,0.139c0.246,0.461 0.546,1.178 0.824,1.809l0.6,1.371c0.267,0.631 0.567,1.306 0.728,1.809Z" style="fill:#fff;fill-rule:nonzero;"/><path d="M64.135,9.807c0,-1.338 -0.599,-2.43 -2.055,-2.43c-1.52,0 -2.495,1.22 -2.495,2.762c0,1.338 0.782,2.505 2.431,2.505c0.706,0 1.295,-0.225 1.841,-0.589l0.043,-1.006c-0.482,0.396 -1.039,0.728 -1.788,0.728c-0.953,0 -1.467,-0.503 -1.542,-1.499l2.923,-0.086l0.642,-0.385Zm-3.543,-0.268c0.139,-0.76 0.642,-1.338 1.434,-1.338c0.739,0 1.081,0.439 1.189,1.263l-2.623,0.075Z" style="fill:#fff;fill-rule:nonzero;"/><path d="M66.319,12.451c-0.032,-0.278 -0.043,-0.664 -0.043,-1.038l0,-5.535c0,-0.364 0.011,-0.889 0.043,-1.167c-0.321,0.064 -0.717,0.107 -1.103,0.139c0.054,0.461 0.075,1.146 0.075,1.767l0,4.079c0,0.631 -0.021,1.295 -0.075,1.755l1.103,0Z" style="fill:#fff;fill-rule:nonzero;"/><path d="M72.389,9.882c0,-1.338 -0.921,-2.505 -2.387,-2.505c-1.52,0 -2.516,1.22 -2.516,2.762c0,1.338 0.921,2.505 2.377,2.505c1.531,0 2.526,-1.221 2.526,-2.762Zm-0.974,0.139c0,0.974 -0.557,1.756 -1.499,1.756c-0.878,0 -1.456,-0.61 -1.456,-1.799c0,-0.963 0.589,-1.734 1.499,-1.734c0.814,0 1.456,0.632 1.456,1.777Z" style="fill:#fff;fill-rule:nonzero;"/><path d="M78.288,9.818c0,-1.349 -0.814,-2.441 -2.173,-2.441c-0.643,0 -1.221,0.332 -1.585,0.771l-0.043,-0.664c-0.321,0.032 -0.578,0.043 -0.963,0.043c0.053,0.46 0.075,1.199 0.075,1.82l0,3.586c0,0.621 -0.022,1.349 -0.075,1.809l1.103,-0.096c-0.033,-0.268 -0.043,-0.632 -0.043,-0.996l0,-1.413c0.278,0.236 0.771,0.407 1.263,0.407c1.135,0 2.441,-1.071 2.441,-2.826Zm-0.985,0.096c0,0.996 -0.589,1.884 -1.477,1.884c-0.6,0 -0.985,-0.203 -1.242,-0.503l0,-2.323c0.3,-0.439 0.781,-0.739 1.274,-0.739c0.781,0 1.445,0.493 1.445,1.681Z" style="fill:#fff;fill-rule:nonzero;"/><path d="M80.515,12.451c-0.032,-0.278 -0.043,-0.664 -0.043,-1.038l0,-2.794c0,-0.375 0.011,-0.868 0.043,-1.146c-0.322,0.032 -0.718,0.054 -1.103,0.054c0.054,0.46 0.075,1.199 0.075,1.82l0,1.349c0,0.631 -0.021,1.295 -0.075,1.755l1.103,0Zm0.16,-6.766c0,-0.321 -0.257,-0.631 -0.631,-0.631c-0.396,0 -0.664,0.321 -0.664,0.696c0,0.321 0.246,0.631 0.631,0.631c0.397,0 0.664,-0.321 0.664,-0.696Z" style="fill:#fff;fill-rule:nonzero;"/><path d="M86.371,12.451c-0.022,-0.278 -0.043,-0.728 -0.043,-1.102l0,-2.195c0,-1.113 -0.514,-1.777 -1.585,-1.777c-0.599,0 -1.327,0.385 -1.734,1.049l-0.075,-0.953c-0.321,0.032 -0.589,0.054 -0.963,0.054c0.042,0.46 0.064,1.199 0.064,1.82l0,1.284c0,0.621 -0.022,1.36 -0.064,1.82l1.092,0c-0.033,-0.278 -0.043,-0.728 -0.043,-1.102l0,-1.767c0,-0.642 0.76,-1.338 1.466,-1.338c0.653,0 0.857,0.482 0.857,1.103l0,1.284c0,0.621 -0.022,1.36 -0.075,1.82l1.103,0Z" style="fill:#fff;fill-rule:nonzero;"/><path d="M91.691,9.111c0,-0.375 -0.192,-0.888 -0.599,-1.263c0.139,-0.3 0.385,-0.418 0.878,-0.364l0.053,-0.867c-0.771,-0.097 -1.274,0.182 -1.477,0.899c-0.225,-0.086 -0.482,-0.139 -0.782,-0.139c-1.188,0 -2.077,0.856 -2.077,1.916c0,0.557 0.268,1.071 0.728,1.392c-0.428,0.257 -0.674,0.524 -0.674,0.899c0,0.332 0.235,0.557 0.589,0.717c-0.664,0.311 -1.06,0.718 -1.06,1.274c0,0.707 0.739,1.274 2.12,1.274c1.563,0 2.697,-0.845 2.697,-1.841c0,-0.921 -0.835,-1.274 -2.173,-1.274l-0.214,0c-0.867,0 -1.092,-0.107 -1.092,-0.364c0,-0.129 0.128,-0.278 0.353,-0.418c0.193,0.054 0.396,0.086 0.621,0.086c1.199,0 2.109,-0.792 2.109,-1.927Zm-1.959,3.437l0.15,0c0.856,0 1.285,0.192 1.285,0.599c0,0.514 -0.675,0.942 -1.724,0.942c-0.846,0 -1.252,-0.321 -1.252,-0.664c0,-0.299 0.267,-0.642 0.899,-0.91c0.182,0.022 0.385,0.033 0.642,0.033Zm1.039,-3.33c0,0.578 -0.429,1.06 -1.103,1.06c-0.621,0 -1.049,-0.375 -1.049,-1.081c0,-0.546 0.439,-1.06 1.102,-1.06c0.653,0 1.05,0.428 1.05,1.081Z" style="fill:#fff;fill-rule:nonzero;"/><path d="M99.999,11.552c-0.728,0.021 -1.478,0.032 -2.345,0.032c-0.321,0 -0.653,-0.011 -0.974,-0.011c-0.011,-0.203 -0.011,-0.503 -0.011,-0.663l0,-1.981l2.58,0.022c0,-0.311 0.011,-0.664 0.032,-0.921l-2.612,0.021l0,-1.616c0,-0.161 0,-0.45 0.011,-0.653c0.31,-0.011 0.653,-0.011 0.974,-0.011c0.76,0 1.413,0.011 2.045,0.021c0.011,-0.342 0.032,-0.621 0.086,-0.931c-0.643,0.032 -1.371,0.054 -2.131,0.054c-0.76,0 -1.488,-0.022 -2.109,-0.054c0.054,0.514 0.075,1.959 0.075,2.644l0,2.366c0,0.696 -0.021,2.109 -0.075,2.623c0.621,-0.043 1.424,-0.053 2.184,-0.053c0.76,0 1.552,0.01 2.195,0.053c0.01,-0.343 0.032,-0.642 0.075,-0.942Z" style="fill:#fff;fill-rule:nonzero;"/><path d="M105.437,12.451c-0.021,-0.278 -0.043,-0.728 -0.043,-1.102l0,-2.195c0,-1.113 -0.514,-1.777 -1.584,-1.777c-0.6,0 -1.328,0.385 -1.734,1.049l-0.075,-0.953c-0.322,0.032 -0.589,0.054 -0.964,0.054c0.043,0.46 0.064,1.199 0.064,1.82l0,1.284c0,0.621 -0.021,1.36 -0.064,1.82l1.092,0c-0.032,-0.278 -0.043,-0.728 -0.043,-1.102l0,-1.767c0,-0.642 0.76,-1.338 1.467,-1.338c0.653,0 0.856,0.482 0.856,1.103l0,1.284c0,0.621 -0.021,1.36 -0.075,1.82l1.103,0Z" style="fill:#fff;fill-rule:nonzero;"/><path d="M108.349,12.569l0.674,-0.075l2.088,-5.032c-0.31,0.033 -0.707,0.043 -1.092,0.043c-0.161,0.514 -0.535,1.478 -0.685,1.884l-0.621,1.66l-1.445,-3.608l-1.071,0.139c0.246,0.461 0.546,1.178 0.825,1.809l0.599,1.371c0.268,0.631 0.567,1.306 0.728,1.809Z" style="fill:#fff;fill-rule:nonzero;"/><path d="M113.07,12.451c-0.032,-0.278 -0.043,-0.664 -0.043,-1.038l0,-2.794c0,-0.375 0.011,-0.868 0.043,-1.146c-0.321,0.032 -0.717,0.054 -1.103,0.054c0.054,0.46 0.075,1.199 0.075,1.82l0,1.349c0,0.631 -0.021,1.295 -0.075,1.755l1.103,0Zm0.161,-6.766c0,-0.321 -0.257,-0.631 -0.632,-0.631c-0.396,0 -0.664,0.321 -0.664,0.696c0,0.321 0.247,0.631 0.632,0.631c0.396,0 0.664,-0.321 0.664,-0.696Z" style="fill:#fff;fill-rule:nonzero;"/><path d="M117.299,7.377c-0.803,0.096 -1.328,0.385 -1.734,1.049l-0.108,-0.974c-0.31,0.075 -0.631,0.128 -0.974,0.139c0.075,0.439 0.107,0.921 0.107,1.542l0,1.498c0,0.621 -0.01,1.36 -0.064,1.82l1.092,0c-0.032,-0.278 -0.043,-0.728 -0.043,-1.102l0,-1.842c0,-0.749 0.889,-1.124 1.595,-0.995l0.129,-1.135Z" style="fill:#fff;fill-rule:nonzero;"/><path d="M122.673,9.882c0,-1.338 -0.921,-2.505 -2.387,-2.505c-1.521,0 -2.516,1.22 -2.516,2.762c0,1.338 0.921,2.505 2.376,2.505c1.531,0 2.527,-1.221 2.527,-2.762Zm-0.974,0.139c0,0.974 -0.557,1.756 -1.499,1.756c-0.878,0 -1.456,-0.61 -1.456,-1.799c0,-0.963 0.589,-1.734 1.499,-1.734c0.813,0 1.456,0.632 1.456,1.777Z" style="fill:#fff;fill-rule:nonzero;"/><path d="M128.218,12.451c-0.021,-0.278 -0.042,-0.728 -0.042,-1.102l0,-2.195c0,-1.113 -0.514,-1.777 -1.585,-1.777c-0.599,0 -1.327,0.385 -1.734,1.049l-0.075,-0.953c-0.321,0.032 -0.589,0.054 -0.964,0.054c0.043,0.46 0.065,1.199 0.065,1.82l0,1.284c0,0.621 -0.022,1.36 -0.065,1.82l1.092,0c-0.032,-0.278 -0.042,-0.728 -0.042,-1.102l0,-1.767c0,-0.642 0.76,-1.338 1.466,-1.338c0.653,0 0.857,0.482 0.857,1.103l0,1.284c0,0.621 -0.022,1.36 -0.075,1.82l1.102,0Z" style="fill:#fff;fill-rule:nonzero;"/><path d="M136.965,12.451c-0.032,-0.278 -0.043,-0.728 -0.043,-1.102l0,-2.195c0,-1.113 -0.492,-1.777 -1.563,-1.777c-0.728,0 -1.327,0.407 -1.659,0.953c-0.172,-0.546 -0.632,-0.953 -1.424,-0.953c-0.568,0 -1.156,0.321 -1.595,0.91l-0.075,-0.814c-0.321,0.032 -0.578,0.054 -0.964,0.054c0.054,0.46 0.075,1.199 0.075,1.82l0,1.284c0,0.621 -0.021,1.36 -0.075,1.82l1.103,0c-0.032,-0.278 -0.043,-0.728 -0.043,-1.102l0,-1.906c0,-0.653 0.621,-1.199 1.317,-1.199c0.653,0 0.792,0.482 0.792,1.103l0,1.284c0,0.621 -0.021,1.36 -0.064,1.82l1.092,0c-0.032,-0.278 -0.043,-0.728 -0.043,-1.102l0,-1.906c0,-0.653 0.61,-1.199 1.317,-1.199c0.653,0 0.824,0.482 0.824,1.103l0,1.284c0,0.621 -0.021,1.36 -0.075,1.82l1.103,0Z" style="fill:#fff;fill-rule:nonzero;"/><path d="M142.66,9.807c0,-1.338 -0.599,-2.43 -2.055,-2.43c-1.52,0 -2.495,1.22 -2.495,2.762c0,1.338 0.782,2.505 2.43,2.505c0.707,0 1.296,-0.225 1.842,-0.589l0.043,-1.006c-0.482,0.396 -1.039,0.728 -1.788,0.728c-0.953,0 -1.467,-0.503 -1.542,-1.499l2.923,-0.086l0.642,-0.385Zm-3.543,-0.268c0.139,-0.76 0.642,-1.338 1.434,-1.338c0.739,0 1.081,0.439 1.188,1.263l-2.622,0.075Z" style="fill:#fff;fill-rule:nonzero;"/><path d="M148.152,12.451c-0.021,-0.278 -0.043,-0.728 -0.043,-1.102l0,-2.195c0,-1.113 -0.514,-1.777 -1.584,-1.777c-0.6,0 -1.328,0.385 -1.734,1.049l-0.075,-0.953c-0.322,0.032 -0.589,0.054 -0.964,0.054c0.043,0.46 0.064,1.199 0.064,1.82l0,1.284c0,0.621 -0.021,1.36 -0.064,1.82l1.092,0c-0.032,-0.278 -0.043,-0.728 -0.043,-1.102l0,-1.767c0,-0.642 0.76,-1.338 1.467,-1.338c0.653,0 0.856,0.482 0.856,1.103l0,1.284c0,0.621 -0.021,1.36 -0.075,1.82l1.103,0Z" style="fill:#fff;fill-rule:nonzero;"/><path d="M152.274,11.466c-0.214,0.139 -0.536,0.257 -0.803,0.257c-0.364,0 -0.546,-0.139 -0.546,-0.642l0,-2.741l1.284,0c0,-0.385 0.011,-0.621 0.033,-0.856l-1.317,0l0,-1.285l-0.878,0.236l-0.096,1.049l-0.643,0l-0.257,0.856l0.889,0l0,2.805c0,0.932 0.385,1.456 1.317,1.456c0.321,0 0.749,-0.096 0.974,-0.278l0.043,-0.857Z" style="fill:#fff;fill-rule:nonzero;"/><path d="M154.533,12.601c0.685,0 1.252,-0.353 1.541,-0.856c0.054,0.556 0.428,0.835 0.835,0.835c0.257,0 0.461,-0.075 0.643,-0.15l0.096,-0.685c-0.161,0.053 -0.3,0.085 -0.428,0.085c-0.236,0 -0.322,-0.128 -0.311,-0.428l0.064,-2.12c0.033,-1.134 -0.567,-1.905 -1.841,-1.905c-0.632,0 -1.21,0.171 -1.745,0.482l0.225,0.856c0.342,-0.257 0.867,-0.471 1.359,-0.471c0.75,0 1.06,0.364 1.039,1.103l-0.011,0.16c-0.139,-0.011 -0.278,-0.021 -0.417,-0.021c-1.713,0 -2.602,0.664 -2.602,1.659c0,0.878 0.61,1.456 1.553,1.456Zm0.214,-0.792c-0.589,0 -0.814,-0.311 -0.814,-0.717c0,-0.536 0.418,-0.975 1.617,-0.975c0.149,0 0.289,0.011 0.439,0.022l-0.022,0.482c-0.032,0.685 -0.535,1.188 -1.22,1.188Z" style="fill:#fff;fill-rule:nonzero;"/><path d="M159.607,12.451c-0.032,-0.278 -0.043,-0.664 -0.043,-1.038l0,-5.535c0,-0.364 0.011,-0.889 0.043,-1.167c-0.321,0.064 -0.717,0.107 -1.103,0.139c0.054,0.461 0.075,1.146 0.075,1.767l0,4.079c0,0.631 -0.021,1.295 -0.075,1.755l1.103,0Z" style="fill:#fff;fill-rule:nonzero;"/><path d="M167.402,11.542c-0.728,0.021 -1.477,0.032 -2.344,0.032c-0.321,0 -0.664,-0.011 -0.964,-0.011c-0.021,-0.214 -0.021,-0.492 -0.021,-0.664l0,-4.432c0,-0.417 0.011,-1.274 0.032,-1.584c-0.343,0.043 -0.739,0.053 -1.156,0.053c0.053,0.514 0.075,1.895 0.075,2.58l0,2.366c0,0.696 -0.022,2.109 -0.075,2.623c0.631,-0.043 1.424,-0.053 2.184,-0.053c0.76,0 1.552,0.01 2.194,0.053c0.011,-0.342 0.032,-0.663 0.075,-0.963Z" style="fill:#fff;fill-rule:nonzero;"/><path d="M169.511,12.612c0.685,0 1.253,-0.353 1.542,-0.856c0.053,0.557 0.428,0.835 0.835,0.835c0.257,0 0.46,-0.075 0.642,-0.15l0.097,-0.685c-0.161,0.053 -0.3,0.086 -0.429,0.086c-0.235,0 -0.321,-0.129 -0.31,-0.429l0.064,-2.119c0.032,-1.135 -0.567,-1.906 -1.841,-1.906c-0.632,0 -1.21,0.171 -1.745,0.482l0.225,0.856c0.342,-0.257 0.867,-0.471 1.359,-0.471c0.75,0 1.06,0.364 1.039,1.103l-0.011,0.16c-0.139,-0.01 -0.278,-0.021 -0.418,-0.021c-1.712,0 -2.601,0.664 -2.601,1.659c0,0.878 0.61,1.456 1.552,1.456Zm0.214,-0.792c-0.588,0 -0.813,-0.31 -0.813,-0.717c0,-0.535 0.417,-0.974 1.616,-0.974c0.15,0 0.289,0.01 0.439,0.021l-0.021,0.482c-0.032,0.685 -0.535,1.188 -1.221,1.188Z" style="fill:#fff;fill-rule:nonzero;"/><path d="M174.564,12.58l0.643,-0.075l1.199,-3.49l0.567,1.52c0.278,0.761 0.514,1.478 0.674,2.045l0.632,-0.075l1.756,-5.031c-0.321,0.032 -0.664,0.042 -1.049,0.042c-0.14,0.536 -0.439,1.531 -0.568,1.927l-0.439,1.381l-1.209,-3.372l-0.718,0.064c-0.16,0.536 -0.385,1.21 -0.642,1.938l-0.482,1.392l-1.102,-3.394l-1.082,0.139c0.214,0.461 0.482,1.178 0.718,1.81l0.513,1.37c0.225,0.632 0.461,1.306 0.589,1.809Z" style="fill:#fff;fill-rule:nonzero;"/><path d="M189.327,10.632c-0.717,0.674 -1.456,1.081 -2.462,1.081c-1.52,0 -2.73,-1.081 -2.73,-3.04c0,-1.681 1.167,-2.966 2.805,-2.966c0.728,0 1.456,0.268 1.991,0.685l0.3,-0.963c-0.568,-0.407 -1.424,-0.675 -2.227,-0.675c-2.28,0 -3.95,1.831 -3.95,4.143c0,2.013 1.552,3.758 3.747,3.758c0.91,0 1.734,-0.3 2.451,-0.856l0.075,-1.167Z" style="fill:#fff;fill-rule:nonzero;"/><path d="M194.862,12.462c-0.021,-0.278 -0.043,-0.728 -0.043,-1.102l0,-2.195c0,-1.113 -0.514,-1.777 -1.584,-1.777c-0.589,0 -1.317,0.375 -1.724,1.038l0,-2.537c0,-0.364 0.011,-0.888 0.043,-1.167c-0.321,0.065 -0.717,0.107 -1.092,0.14c0.043,0.46 0.064,1.145 0.064,1.766l0,4.079c0,0.631 -0.021,1.295 -0.064,1.755l1.092,0c-0.032,-0.278 -0.043,-0.663 -0.043,-1.038l0,-1.831c0,-0.642 0.76,-1.338 1.467,-1.338c0.653,0 0.856,0.482 0.856,1.103l0,1.284c0,0.621 -0.021,1.36 -0.075,1.82l1.103,0Z" style="fill:#fff;fill-rule:nonzero;"/><path d="M197.506,12.612c0.685,0 1.253,-0.353 1.542,-0.856c0.053,0.557 0.428,0.835 0.835,0.835c0.257,0 0.46,-0.075 0.642,-0.15l0.096,-0.685c-0.16,0.053 -0.299,0.086 -0.428,0.086c-0.235,0 -0.321,-0.129 -0.31,-0.429l0.064,-2.119c0.032,-1.135 -0.567,-1.906 -1.841,-1.906c-0.632,0 -1.21,0.171 -1.745,0.482l0.225,0.856c0.342,-0.257 0.867,-0.471 1.359,-0.471c0.749,0 1.06,0.364 1.039,1.103l-0.011,0.16c-0.139,-0.01 -0.279,-0.021 -0.418,-0.021c-1.713,0 -2.601,0.664 -2.601,1.659c0,0.878 0.61,1.456 1.552,1.456Zm0.214,-0.792c-0.589,0 -0.813,-0.31 -0.813,-0.717c0,-0.535 0.417,-0.974 1.616,-0.974c0.15,0 0.289,0.01 0.439,0.021l-0.021,0.482c-0.032,0.685 -0.536,1.188 -1.221,1.188Z" style="fill:#fff;fill-rule:nonzero;"/><path d="M208.8,12.462c-0.032,-0.278 -0.042,-0.728 -0.042,-1.102l0,-2.195c0,-1.113 -0.493,-1.777 -1.563,-1.777c-0.728,0 -1.328,0.407 -1.66,0.953c-0.171,-0.546 -0.631,-0.953 -1.424,-0.953c-0.567,0 -1.156,0.321 -1.595,0.91l-0.075,-0.814c-0.321,0.032 -0.578,0.054 -0.963,0.054c0.053,0.46 0.075,1.199 0.075,1.82l0,1.284c0,0.621 -0.022,1.36 -0.075,1.82l1.103,0c-0.033,-0.278 -0.043,-0.728 -0.043,-1.102l0,-1.906c0,-0.653 0.621,-1.199 1.317,-1.199c0.653,0 0.792,0.482 0.792,1.103l0,1.284c0,0.621 -0.022,1.36 -0.064,1.82l1.091,0c-0.032,-0.278 -0.042,-0.728 -0.042,-1.102l0,-1.906c0,-0.653 0.61,-1.199 1.316,-1.199c0.653,0 0.825,0.482 0.825,1.103l0,1.284c0,0.621 -0.022,1.36 -0.075,1.82l1.102,0Z" style="fill:#fff;fill-rule:nonzero;"/><path d="M214.988,9.829c0,-1.349 -0.813,-2.441 -2.173,-2.441c-0.642,0 -1.22,0.332 -1.584,0.771l-0.043,-0.664c-0.321,0.032 -0.578,0.043 -0.964,0.043c0.054,0.46 0.075,1.199 0.075,1.82l0,3.586c0,0.621 -0.021,1.349 -0.075,1.809l1.103,-0.096c-0.032,-0.268 -0.043,-0.632 -0.043,-0.996l0,-1.413c0.279,0.236 0.771,0.407 1.263,0.407c1.135,0 2.441,-1.07 2.441,-2.826Zm-0.985,0.096c0,0.996 -0.588,1.884 -1.477,1.884c-0.599,0 -0.985,-0.203 -1.242,-0.503l0,-2.323c0.3,-0.439 0.782,-0.739 1.274,-0.739c0.782,0 1.445,0.493 1.445,1.681Z" style="fill:#fff;fill-rule:nonzero;"/><path d="M217.215,12.462c-0.032,-0.278 -0.043,-0.663 -0.043,-1.038l0,-2.794c0,-0.375 0.011,-0.867 0.043,-1.146c-0.321,0.032 -0.717,0.054 -1.103,0.054c0.054,0.46 0.075,1.199 0.075,1.82l0,1.349c0,0.631 -0.021,1.295 -0.075,1.755l1.103,0Zm0.161,-6.765c0,-0.322 -0.257,-0.632 -0.632,-0.632c-0.396,0 -0.664,0.321 -0.664,0.696c0,0.321 0.246,0.631 0.632,0.631c0.396,0 0.664,-0.321 0.664,-0.695Z" style="fill:#fff;fill-rule:nonzero;"/><path d="M223.285,9.893c0,-1.338 -0.921,-2.505 -2.387,-2.505c-1.52,0 -2.516,1.22 -2.516,2.762c0,1.338 0.921,2.505 2.377,2.505c1.53,0 2.526,-1.22 2.526,-2.762Zm-0.974,0.139c0,0.974 -0.557,1.756 -1.499,1.756c-0.878,0 -1.456,-0.61 -1.456,-1.799c0,-0.963 0.589,-1.734 1.499,-1.734c0.814,0 1.456,0.632 1.456,1.777Z" style="fill:#fff;fill-rule:nonzero;"/><path d="M228.831,12.462c-0.022,-0.278 -0.043,-0.728 -0.043,-1.102l0,-2.195c0,-1.113 -0.514,-1.777 -1.585,-1.777c-0.599,0 -1.327,0.385 -1.734,1.049l-0.075,-0.953c-0.321,0.032 -0.589,0.054 -0.963,0.054c0.042,0.46 0.064,1.199 0.064,1.82l0,1.284c0,0.621 -0.022,1.36 -0.064,1.82l1.092,0c-0.033,-0.278 -0.043,-0.728 -0.043,-1.102l0,-1.767c0,-0.642 0.76,-1.338 1.466,-1.338c0.653,0 0.857,0.482 0.857,1.103l0,1.284c0,0.621 -0.022,1.36 -0.075,1.82l1.103,0Z" style="fill:#fff;fill-rule:nonzero;"/><path d="M231.903,7.388c-1.049,0 -1.788,0.674 -1.788,1.509c0,1.596 2.527,1.307 2.527,2.281c0,0.396 -0.407,0.61 -0.953,0.61c-0.568,0 -1.231,-0.246 -1.659,-0.589l-0.054,1.017c0.396,0.268 1.156,0.439 1.691,0.439c1.05,0 1.938,-0.621 1.938,-1.638c0,-1.541 -2.537,-1.37 -2.537,-2.162c0,-0.45 0.407,-0.6 0.835,-0.6c0.439,0 0.878,0.15 1.21,0.396l0.332,-0.856c-0.343,-0.214 -0.921,-0.407 -1.542,-0.407Z" style="fill:#fff;fill-rule:nonzero;"/></g></svg>